<?xml version="1.0" encoding="UTF-8"?>
<!-- Generator: visioncortex VTracer 0.6.12 -->
<svg version="1.1" xmlns="http://www.w3.org/2000/svg" width="400" height="299">

<path d="M0,0 L5,0 L7,7 L13,14 L16,19 L18,26 L18,32 L16,32 L14,38 L11,47 L10,55 L12,55 L10,59 L7,59 L6,63 L-3,64 L-5,67 L-6,74 L-1,72 L4,69 L15,71 L17,74 L31,74 L36,72 L43,70 L44,68 L54,66 L59,67 L63,70 L73,74 L78,78 L78,80 L94,78 L98,77 L102,81 L105,88 L105,93 L107,93 L108,97 L113,97 L119,104 L129,106 L134,111 L137,112 L137,110 L142,109 L146,109 L149,108 L153,113 L156,118 L162,122 L165,128 L165,130 L174,132 L175,134 L181,135 L183,139 L183,142 L187,143 L189,149 L189,152 L193,153 L195,162 L199,168 L202,174 L204,181 L207,186 L204,198 L201,201 L199,207 L198,214 L196,217 L193,229 L190,235 L187,235 L186,239 L185,241 L181,241 L179,245 L174,250 L166,256 L166,260 L159,261 L155,262 L145,267 L143,271 L141,271 L140,274 L137,275 L124,275 L114,270 L106,268 L105,265 L101,265 L101,262 L94,261 L82,255 L78,249 L74,247 L71,242 L66,241 L61,241 L60,249 L51,254 L50,264 L43,264 L42,265 L25,265 L25,260 L23,260 L23,252 L21,251 L22,244 L23,236 L26,232 L28,232 L27,216 L23,214 L20,209 L20,200 L21,196 L15,188 L15,186 L4,186 L1,188 L-4,188 L-8,193 L-20,192 L-26,195 L-36,195 L-46,190 L-50,189 L-53,200 L-59,205 L-62,202 L-66,192 L-68,190 L-68,182 L-71,181 L-71,179 L-77,181 L-79,186 L-90,185 L-94,186 L-94,184 L-97,184 L-98,189 L-99,192 L-105,195 L-109,193 L-112,190 L-114,179 L-118,171 L-120,169 L-119,160 L-122,160 L-122,149 L-118,144 L-116,137 L-113,117 L-111,109 L-109,100 L-106,99 L-105,91 L-105,79 L-103,79 L-103,73 L-101,68 L-90,62 L-84,61 L-84,58 L-81,58 L-80,51 L-79,46 L-80,41 L-79,31 L-83,28 L-84,20 L-81,14 L-77,13 L-77,11 L-75,11 L-75,9 L-73,9 L-72,6 L-69,10 L-65,11 L-64,17 L-61,20 L-61,23 L-59,23 L-59,25 L-64,25 L-62,33 L-61,35 L-58,36 L-51,46 L-47,51 L-46,48 L-40,46 L-38,39 L-33,34 L-27,25 L-25,20 L-18,16 L-10,9 L-5,8 L-3,8 L-2,2 L0,2 Z " fill="#98B96D" transform="translate(162,3)"/>
<path d="M0,0 L5,0 L7,7 L13,14 L16,19 L18,26 L18,32 L16,32 L14,38 L11,47 L10,55 L12,55 L10,59 L7,59 L6,63 L-3,64 L-5,67 L-6,74 L-1,72 L4,69 L15,71 L17,74 L31,74 L36,72 L43,70 L44,68 L54,66 L59,67 L63,70 L73,74 L78,78 L78,80 L94,78 L98,77 L102,81 L105,88 L105,93 L107,93 L108,97 L113,97 L119,105 L117,109 L112,113 L103,115 L99,115 L99,117 L94,120 L91,120 L92,122 L92,129 L81,136 L79,136 L79,144 L76,143 L73,138 L68,136 L66,130 L66,123 L69,123 L69,120 L65,120 L64,114 L61,114 L61,112 L56,109 L54,119 L50,124 L47,127 L46,129 L44,129 L43,133 L41,133 L41,138 L36,139 L36,141 L31,141 L33,146 L38,149 L42,150 L42,152 L51,153 L56,155 L57,157 L80,159 L81,163 L74,163 L72,167 L70,167 L71,176 L73,183 L66,183 L63,180 L42,178 L42,173 L36,173 L32,169 L32,167 L36,167 L36,165 L31,165 L30,167 L26,162 L20,159 L20,154 L22,153 L23,146 L10,146 L2,142 L-5,138 L-10,133 L-17,127 L-17,125 L-14,125 L-14,127 L-8,127 L-8,125 L-12,126 L-12,124 L-22,125 L-22,130 L-33,130 L-32,133 L-29,135 L-33,136 L-34,147 L-38,147 L-41,145 L-39,149 L-55,148 L-59,147 L-61,148 L-63,147 L-63,151 L-57,150 L-55,155 L-51,164 L-49,168 L-46,169 L-46,171 L-51,170 L-53,168 L-58,166 L-58,162 L-63,162 L-64,165 L-64,177 L-66,182 L-67,190 L-68,190 L-68,182 L-71,181 L-71,179 L-77,181 L-79,186 L-90,185 L-94,186 L-94,184 L-97,184 L-98,189 L-99,192 L-105,195 L-109,193 L-112,190 L-114,179 L-118,171 L-120,169 L-119,160 L-122,160 L-122,149 L-118,144 L-116,137 L-113,117 L-111,109 L-109,100 L-106,99 L-105,91 L-105,79 L-103,79 L-103,73 L-101,68 L-90,62 L-84,61 L-84,58 L-81,58 L-80,51 L-79,46 L-80,41 L-79,31 L-83,28 L-84,20 L-81,14 L-77,13 L-77,11 L-75,11 L-75,9 L-73,9 L-72,6 L-69,10 L-65,11 L-64,17 L-61,20 L-61,23 L-59,23 L-59,25 L-64,25 L-62,33 L-61,35 L-58,36 L-51,46 L-47,51 L-46,48 L-40,46 L-38,39 L-33,34 L-27,25 L-25,20 L-18,16 L-10,9 L-5,8 L-3,8 L-2,2 L0,2 Z " fill="#A4C960" transform="translate(162,3)"/>
<path d="M0,0 L4,2 L4,4 L1,5 L4,6 L3,12 L5,12 L6,15 L6,26 L7,29 L15,31 L14,36 L13,41 L13,44 L18,46 L28,48 L33,50 L34,54 L29,56 L33,57 L33,55 L42,54 L44,53 L45,50 L49,48 L51,44 L51,40 L58,38 L58,36 L61,34 L64,34 L64,32 L66,32 L66,30 L75,25 L86,27 L88,30 L102,30 L107,28 L114,26 L115,24 L125,22 L130,23 L134,26 L144,30 L149,34 L149,36 L165,34 L169,33 L173,37 L176,44 L176,49 L178,49 L179,53 L184,53 L190,61 L188,65 L183,69 L174,71 L170,71 L170,73 L165,76 L162,76 L163,78 L163,85 L152,92 L150,92 L150,100 L147,99 L144,94 L139,92 L137,86 L137,79 L140,79 L140,76 L136,76 L135,70 L132,70 L132,68 L127,65 L125,75 L121,80 L118,83 L117,85 L115,85 L114,89 L112,89 L112,94 L107,95 L107,97 L102,97 L104,102 L109,105 L113,106 L113,108 L122,109 L127,111 L128,113 L151,115 L152,119 L145,119 L143,123 L141,123 L142,132 L144,139 L137,139 L134,136 L113,134 L113,129 L107,129 L103,125 L103,123 L107,123 L107,121 L102,121 L101,123 L97,118 L91,115 L91,110 L93,109 L94,102 L81,102 L73,98 L66,94 L61,89 L54,83 L54,81 L57,81 L57,83 L63,83 L63,81 L59,82 L59,80 L49,81 L49,86 L38,86 L39,89 L42,91 L38,92 L37,103 L33,103 L30,101 L32,105 L29,105 L25,98 L25,94 L30,94 L30,92 L23,93 L19,89 L19,86 L21,86 L22,87 L25,86 L25,84 L32,84 L32,82 L27,82 L30,79 L35,75 L26,76 L26,78 L29,79 L26,80 L23,79 L23,77 L19,77 L19,80 L25,80 L21,81 L21,83 L19,83 L18,85 L17,84 L17,78 L15,78 L14,75 L12,74 L13,67 L17,64 L14,63 L14,61 L11,60 L11,57 L9,57 L9,59 L4,58 L3,61 L-5,63 L-13,67 L-16,67 L-16,61 L-14,60 L-14,51 L-16,51 L-16,49 L-10,47 L-9,46 L-8,33 L-12,31 L-14,25 L-14,20 L-7,19 L-6,24 L-6,22 L-3,21 L-2,19 L0,19 L0,15 L-7,17 L-5,13 L-3,12 L-3,2 Z " fill="#C6ED85" transform="translate(91,47)"/>
<path d="M0,0 L9,0 L16,6 L19,7 L19,5 L24,4 L28,4 L31,3 L35,8 L38,13 L44,17 L47,23 L47,25 L56,27 L57,29 L63,30 L65,34 L65,37 L69,38 L71,44 L71,47 L75,48 L77,57 L81,63 L84,69 L86,76 L89,81 L86,93 L84,94 L84,92 L80,90 L72,85 L71,81 L66,78 L66,74 L62,74 L61,79 L59,86 L54,86 L49,82 L48,80 L40,78 L37,74 L33,73 L28,65 L28,63 L24,62 L24,59 L20,58 L17,56 L16,46 L15,42 L12,39 L12,37 L10,37 L10,43 L5,45 L1,46 L0,50 L-7,56 L-13,59 L-18,68 L-24,68 L-25,65 L-29,63 L-29,61 L-31,61 L-31,59 L-44,59 L-44,58 L-37,58 L-38,54 L-48,54 L-61,53 L-63,50 L-76,47 L-76,45 L-82,44 L-87,40 L-87,36 L-82,36 L-82,34 L-77,33 L-77,28 L-75,28 L-74,24 L-72,24 L-70,19 L-65,14 L-63,4 L-60,4 L-55,6 L-57,7 L-57,9 L-54,9 L-53,15 L-49,15 L-49,18 L-52,18 L-51,25 L-50,26 L-50,31 L-45,32 L-41,38 L-39,39 L-39,31 L-28,24 L-26,24 L-27,15 L-21,12 L-19,12 L-19,10 L-6,7 L-3,4 L-1,4 Z " fill="#CEE046" transform="translate(280,108)"/>
<path d="M0,0 L5,1 L10,2 L15,1 L16,6 L14,17 L17,21 L16,26 L3,30 L1,34 L2,40 L7,42 L7,45 L22,44 L33,42 L37,44 L51,46 L48,53 L45,53 L44,57 L43,59 L39,59 L37,63 L32,68 L24,74 L24,78 L17,79 L13,80 L3,85 L1,89 L-1,89 L-2,92 L-5,93 L-18,93 L-28,88 L-36,86 L-37,83 L-41,83 L-41,80 L-48,79 L-60,73 L-64,67 L-68,65 L-71,60 L-76,58 L-74,57 L-74,52 L-72,52 L-75,47 L-75,44 L-78,44 L-78,42 L-82,41 L-85,36 L-87,34 L-75,31 L-69,27 L-67,23 L-65,22 L-58,22 L-56,16 L-42,16 L-40,21 L-30,22 L-21,16 L-16,15 L-14,15 L-13,11 L-9,9 L-6,3 L-4,1 Z " fill="#BEE070" transform="translate(304,185)"/>
<path d="M0,0 L2,0 L3,4 L6,5 L7,9 L7,19 L11,21 L14,22 L14,25 L18,26 L20,30 L22,32 L23,35 L28,36 L30,40 L39,43 L44,48 L49,48 L51,41 L52,37 L56,37 L58,42 L62,44 L62,48 L68,50 L74,55 L73,59 L71,65 L70,72 L68,75 L66,83 L65,86 L51,85 L47,83 L36,85 L21,85 L21,82 L16,81 L14,77 L15,71 L17,69 L28,66 L30,66 L30,61 L27,57 L29,46 L28,42 L23,43 L16,41 L9,43 L5,50 L2,52 L0,57 L-4,56 L-13,61 L-16,63 L-26,62 L-28,57 L-42,57 L-44,62 L-53,63 L-55,68 L-63,73 L-72,73 L-73,69 L-70,65 L-67,65 L-66,62 L-64,62 L-63,56 L-66,56 L-66,50 L-63,50 L-63,48 L-58,47 L-56,42 L-58,34 L-58,25 L-54,22 L-41,22 L-41,24 L-39,24 L-34,30 L-28,31 L-26,26 L-23,21 L-16,17 L-14,17 L-12,13 L-10,12 L-9,9 L-4,6 L0,6 Z " fill="#AAA455" transform="translate(290,145)"/>
<path d="M0,0 L2,0 L3,2 L3,11 L5,12 L3,12 L4,19 L3,22 L10,26 L8,27 L8,29 L16,29 L18,33 L23,35 L27,37 L27,44 L16,51 L14,51 L14,59 L11,58 L8,53 L3,51 L1,45 L1,38 L4,38 L4,35 L0,35 L-1,29 L-4,29 L-4,27 L-9,24 L-11,34 L-15,39 L-18,42 L-19,44 L-21,44 L-22,48 L-24,48 L-24,53 L-29,54 L-29,56 L-34,56 L-32,61 L-27,64 L-23,65 L-23,67 L-14,68 L-9,70 L-8,72 L15,74 L16,78 L9,78 L7,82 L5,82 L6,91 L8,98 L1,98 L-2,95 L-23,93 L-23,88 L-29,88 L-33,84 L-33,82 L-29,82 L-29,80 L-34,80 L-35,82 L-39,77 L-45,74 L-45,69 L-43,68 L-42,61 L-55,61 L-63,57 L-70,53 L-75,48 L-82,42 L-82,40 L-79,40 L-79,42 L-73,42 L-73,40 L-77,41 L-77,39 L-89,40 L-91,36 L-91,33 L-95,31 L-96,27 L-93,26 L-93,24 L-84,24 L-73,25 L-65,22 L-64,25 L-52,23 L-57,22 L-57,20 L-51,20 L-48,20 L-48,18 L-42,18 L-44,20 L-42,21 L-42,25 L-40,25 L-40,27 L-35,25 L-34,23 L-39,22 L-39,20 L-35,20 L-35,16 L-17,16 L-17,18 L-8,16 L-5,14 L-3,10 L-1,9 L-2,4 L0,4 Z M-65,20 L-59,20 L-59,21 L-65,22 Z " fill="#CFE05D" transform="translate(227,88)"/>
<path d="M0,0 L9,0 L14,5 L11,8 L13,8 L14,14 L11,23 L13,23 L13,25 L11,25 L9,30 L12,33 L12,37 L10,37 L10,43 L5,45 L1,46 L0,50 L-7,56 L-13,59 L-18,68 L-24,68 L-25,65 L-29,63 L-29,61 L-31,61 L-31,59 L-44,59 L-44,58 L-37,58 L-38,54 L-48,54 L-61,53 L-63,50 L-76,47 L-76,45 L-82,44 L-87,40 L-87,36 L-82,36 L-82,34 L-77,33 L-77,28 L-75,28 L-74,24 L-72,24 L-70,19 L-65,14 L-63,4 L-60,4 L-55,6 L-57,7 L-57,9 L-54,9 L-53,15 L-49,15 L-49,18 L-52,18 L-51,25 L-50,26 L-50,31 L-45,32 L-41,38 L-39,39 L-39,31 L-28,24 L-26,24 L-27,15 L-21,12 L-19,12 L-19,10 L-6,7 L-3,4 L-1,4 Z " fill="#C0CB48" transform="translate(280,108)"/>
<path d="M0,0 L5,1 L6,4 L12,4 L12,9 L22,9 L33,10 L36,13 L43,14 L43,17 L38,21 L35,21 L35,23 L32,23 L33,27 L32,29 L35,29 L34,35 L31,38 L27,40 L26,45 L30,52 L30,54 L34,55 L34,57 L37,57 L40,63 L40,65 L38,65 L38,70 L36,70 L36,72 L31,72 L30,80 L21,85 L20,95 L13,95 L12,96 L-5,96 L-5,91 L-7,91 L-7,83 L-9,82 L-8,75 L-7,67 L-4,63 L-2,63 L-3,47 L-7,45 L-10,40 L-10,31 L-8,21 L-7,18 L-4,19 L-4,17 L-8,16 L-7,10 L-9,10 L-9,8 L-12,7 L-17,4 L-15,2 L-10,1 L-10,7 L-8,7 L-9,3 L-8,1 Z " fill="#9ABB6C" transform="translate(192,172)"/>
<path d="M0,0 L5,1 L10,2 L15,1 L16,6 L14,17 L17,21 L16,26 L3,30 L1,34 L2,40 L7,42 L7,46 L0,48 L-6,48 L-6,46 L-13,47 L-19,49 L-24,50 L-25,52 L-32,53 L-40,59 L-48,58 L-48,56 L-69,54 L-74,49 L-75,44 L-78,44 L-78,42 L-82,41 L-85,36 L-87,34 L-75,31 L-69,27 L-67,23 L-65,22 L-58,22 L-56,16 L-42,16 L-40,21 L-30,22 L-21,16 L-16,15 L-14,15 L-13,11 L-9,9 L-6,3 L-4,1 Z " fill="#C3D068" transform="translate(304,185)"/>
<path d="M0,0 L5,1 L9,4 L19,8 L24,12 L24,14 L40,12 L44,11 L48,15 L51,22 L51,27 L53,27 L54,31 L59,31 L65,39 L63,43 L58,47 L49,49 L45,49 L45,51 L37,55 L32,54 L27,49 L19,48 L17,44 L11,42 L14,41 L14,30 L13,19 L11,19 L11,23 L9,23 L11,29 L8,29 L7,32 L9,34 L6,34 L5,36 L4,35 L1,37 L-6,37 L-6,35 L-22,36 L-25,35 L-28,29 L-28,26 L-32,27 L-32,24 L-37,22 L-42,20 L-42,18 L-45,18 L-46,11 L-42,8 L-43,5 L-53,6 L-53,8 L-59,9 L-54,5 L-50,3 L-39,5 L-37,8 L-23,8 L-18,6 L-11,4 L-10,2 Z " fill="#B6DB82" transform="translate(216,69)"/>
<path d="M0,0 L7,0 L10,3 L15,4 L15,6 L22,7 L23,14 L22,24 L28,24 L30,21 L35,21 L35,24 L32,24 L32,26 L42,23 L48,22 L48,19 L45,19 L45,21 L42,20 L44,20 L43,12 L54,13 L53,16 L47,15 L47,18 L53,19 L54,17 L53,22 L51,23 L49,22 L49,26 L55,25 L57,30 L61,39 L63,43 L66,44 L66,46 L61,45 L59,43 L54,41 L54,37 L49,37 L48,40 L48,52 L46,57 L45,65 L44,65 L44,57 L41,56 L41,54 L35,56 L33,61 L22,60 L18,61 L18,59 L15,59 L14,63 L14,58 L22,57 L13,56 L12,64 L9,66 L4,66 L1,63 L-2,50 L-3,49 L-3,44 L-6,43 L-5,36 L-1,36 L-2,31 L3,34 L2,31 L-1,29 L1,25 L2,23 L1,17 L-3,18 L-3,16 L-1,16 L-2,10 Z " fill="#C1F238" transform="translate(50,128)"/>
<path d="M0,0 L5,0 L7,7 L13,14 L16,19 L18,26 L18,32 L16,32 L14,38 L11,47 L10,55 L12,55 L10,59 L7,59 L6,63 L-5,62 L-6,66 L-8,66 L-8,62 L-15,62 L-18,60 L-28,60 L-33,57 L-42,52 L-43,49 L-46,48 L-40,46 L-38,39 L-33,34 L-27,25 L-25,20 L-18,16 L-10,9 L-5,8 L-3,8 L-2,2 L0,2 Z " fill="#E3F4C2" transform="translate(162,3)"/>
<path d="M0,0 L7,0 L8,3 L13,5 L18,8 L25,19 L27,17 L30,17 L33,20 L40,24 L45,27 L55,27 L58,29 L65,30 L65,34 L67,34 L68,30 L74,30 L70,32 L68,35 L67,42 L68,44 L66,44 L66,46 L60,48 L60,50 L57,52 L53,52 L53,56 L59,56 L59,57 L52,57 L51,61 L47,63 L45,67 L35,67 L35,69 L28,69 L31,67 L35,65 L34,62 L28,60 L18,58 L15,56 L14,49 L16,47 L17,43 L9,42 L7,36 L7,24 L5,24 L5,18 L2,17 L3,15 L6,16 L2,12 L2,2 L-1,1 Z " fill="#A1B340" transform="translate(89,35)"/>
<path d="M0,0 L4,1 L17,2 L22,5 L22,3 L25,3 L25,14 L35,15 L39,19 L39,21 L45,22 L49,26 L49,28 L51,27 L58,27 L58,29 L50,29 L52,33 L52,36 L58,36 L59,34 L59,36 L62,37 L62,38 L54,39 L53,45 L51,47 L39,46 L33,49 L23,49 L13,44 L9,43 L6,54 L0,59 L-3,56 L-7,46 L-8,45 L-8,34 L-6,34 L-6,18 L-4,18 L-4,16 L1,16 L2,20 L7,22 L9,24 L13,25 L5,15 L3,9 L2,4 L-4,5 L-4,1 Z " fill="#8CB437" transform="translate(103,149)"/>
<path d="M0,0 L4,0 L6,5 L10,7 L10,11 L16,13 L22,18 L21,22 L19,28 L18,35 L16,38 L14,46 L13,49 L-1,48 L-5,46 L-16,48 L-31,48 L-31,45 L-36,44 L-38,40 L-37,34 L-35,32 L-24,29 L-22,29 L-22,24 L-25,20 L-23,11 L-21,7 L-16,6 L-8,11 L-3,11 L-1,4 Z " fill="#83A323" transform="translate(342,182)"/>
<path d="M0,0 L7,3 L5,4 L5,6 L8,6 L9,12 L13,12 L13,15 L10,15 L11,22 L12,23 L12,28 L17,29 L22,36 L25,37 L26,46 L24,46 L23,50 L14,51 L1,50 L-1,47 L-14,44 L-14,42 L-20,41 L-25,37 L-25,33 L-20,33 L-20,31 L-15,30 L-15,25 L-13,25 L-12,21 L-10,21 L-8,16 L-3,11 L-1,1 Z " fill="#9BB170" transform="translate(218,111)"/>
<path d="M0,0 L11,1 L10,4 L4,3 L4,6 L10,7 L11,5 L10,10 L8,11 L6,10 L6,14 L12,13 L14,18 L18,27 L20,31 L23,32 L23,34 L18,33 L16,31 L11,29 L11,25 L6,25 L5,28 L5,40 L3,45 L2,53 L1,53 L1,45 L-2,44 L-2,42 L-8,44 L-10,49 L-21,48 L-25,49 L-25,47 L-28,47 L-29,51 L-29,46 L-21,45 L-26,44 L-25,39 L-26,34 L-25,32 L-22,32 L-22,20 L-25,18 L-24,15 L-22,15 L-23,12 L-21,11 L-15,12 L-13,9 L-8,9 L-8,12 L-11,12 L-11,14 L-1,11 L5,10 L5,7 L2,7 L2,9 L-1,8 L1,8 Z " fill="#D2F165" transform="translate(93,140)"/>
<path d="M0,0 L4,1 L7,4 L10,11 L10,16 L12,16 L13,20 L18,20 L24,28 L22,32 L17,36 L8,38 L4,38 L4,40 L0,42 L-5,41 L-7,40 L-8,37 L-8,30 L-7,25 L-10,24 L-11,20 L-21,18 L-23,16 L-25,16 L-27,9 L-26,1 L-25,3 L-21,4 L-22,9 L-23,11 L-21,11 L-20,7 L-16,4 L-1,1 Z " fill="#CAE194" transform="translate(257,80)"/>
<path d="M0,0 L7,4 L10,10 L10,12 L19,14 L20,16 L26,17 L28,21 L28,24 L32,25 L34,31 L34,34 L38,35 L40,44 L44,50 L47,56 L49,63 L52,68 L49,80 L47,81 L47,79 L43,77 L35,72 L34,68 L29,65 L29,61 L25,61 L24,66 L22,73 L17,73 L12,69 L11,67 L3,65 L0,61 L-4,60 L-9,52 L-9,49 L11,49 L14,52 L14,54 L21,55 L21,57 L35,56 L37,50 L37,37 L34,37 L30,27 L26,25 L21,20 L17,16 L10,15 L5,11 L2,10 L2,8 L4,8 L4,6 L2,6 Z " fill="#CEE24E" transform="translate(317,121)"/>
<path d="M0,0 L3,2 L4,0 L7,0 L10,3 L17,7 L22,10 L32,10 L35,12 L42,13 L42,17 L44,17 L45,13 L51,13 L47,15 L45,18 L44,25 L45,27 L43,27 L43,29 L40,28 L36,30 L30,30 L28,29 L18,28 L13,24 L4,22 L3,20 L0,20 L-2,15 L-4,14 L-4,13 L-8,13 L-8,9 L0,9 Z " fill="#ABB37D" transform="translate(112,52)"/>
<path d="M0,0 L11,0 L15,1 L15,3 L9,3 L9,1 L6,1 L11,6 L14,9 L14,11 L18,13 L25,17 L33,21 L46,22 L46,27 L43,28 L40,31 L37,27 L15,27 L11,29 L-2,28 L-3,26 L-7,25 L-6,23 L-11,22 L-10,12 L-7,11 L-10,9 L-10,6 L1,6 Z " fill="#A7B189" transform="translate(139,127)"/>
<path d="M0,0 L10,1 L15,4 L17,5 L19,11 L15,11 L15,13 L21,12 L21,15 L19,15 L19,18 L27,18 L28,21 L30,21 L30,26 L19,26 L20,29 L23,31 L19,32 L18,43 L14,43 L11,41 L13,45 L10,45 L6,38 L6,34 L11,34 L11,32 L4,33 L0,29 L0,26 L2,26 L3,27 L6,26 L6,24 L13,24 L13,22 L8,22 L11,19 L16,15 L7,16 L7,18 L10,19 L7,20 L4,19 L4,17 L0,17 L0,20 L6,20 L2,21 L2,23 L0,23 L-1,25 L-2,24 L-2,18 L-4,18 L-5,15 L-7,14 L-6,7 L-2,4 L-5,3 L-5,1 Z " fill="#D6DDAD" transform="translate(110,107)"/>
<path d="M0,0 L4,2 L4,4 L1,5 L4,6 L3,12 L5,12 L6,15 L6,26 L7,29 L15,31 L14,36 L13,41 L13,44 L17,46 L17,48 L14,49 L14,47 L9,46 L9,50 L0,50 L-2,47 L1,46 L1,44 L4,44 L4,42 L-2,42 L-2,44 L-6,44 L-6,46 L-3,47 L-5,50 L-7,50 L-8,53 L-13,54 L-14,51 L-16,51 L-16,49 L-10,47 L-9,46 L-8,33 L-12,31 L-14,25 L-14,20 L-7,19 L-6,24 L-6,22 L-3,21 L-2,19 L0,19 L0,15 L-7,17 L-5,13 L-3,12 L-3,2 Z " fill="#DCE898" transform="translate(91,47)"/>
<path d="M0,0 L2,0 L3,2 L3,11 L5,12 L3,12 L4,19 L3,22 L10,26 L8,27 L8,29 L16,29 L18,33 L23,35 L27,37 L27,44 L16,51 L14,51 L14,59 L11,58 L8,53 L3,51 L1,45 L1,38 L4,38 L4,35 L0,35 L-1,29 L-4,29 L-4,27 L-9,22 L-8,19 L-4,19 L-5,13 L-1,9 L-2,4 L0,4 Z " fill="#E4F585" transform="translate(227,88)"/>
<path d="M0,0 L3,4 L7,5 L8,11 L11,14 L11,17 L13,17 L13,19 L8,19 L10,27 L11,29 L14,30 L14,32 L9,30 L6,27 L-1,27 L1,28 L1,39 L-2,40 L-1,50 L-5,54 L1,53 L1,57 L-1,57 L-2,60 L-5,60 L-5,62 L-7,61 L-7,58 L-13,58 L-14,62 L-14,57 L-18,56 L-12,55 L-12,52 L-9,52 L-8,45 L-7,40 L-8,35 L-7,25 L-11,22 L-12,14 L-9,8 L-5,7 L-5,5 L-3,5 L-3,3 L-1,3 Z " fill="#A4BC55" transform="translate(90,9)"/>
<path d="M0,0 L2,0 L2,4 L7,4 L5,5 L5,7 L12,9 L18,16 L24,20 L24,31 L18,36 L16,36 L15,34 L12,33 L12,31 L3,29 L2,22 L-4,23 L-4,25 L-6,25 L-6,23 L-10,22 L-10,15 L-4,6 L-2,1 Z " fill="#A7CD39" transform="translate(139,22)"/>
<path d="M0,0 L5,0 L2,1 L2,3 L8,4 L8,2 L15,2 L18,5 L19,9 L17,9 L19,15 L16,15 L15,18 L17,20 L14,20 L13,22 L12,21 L9,23 L2,23 L2,21 L-14,22 L-17,21 L-18,14 L-18,11 L-13,9 L-10,9 L-9,2 Z " fill="#9CB54B" transform="translate(208,83)"/>
<path d="M0,0 L5,0 L8,10 L12,14 L12,27 L9,30 L-3,30 L-7,32 L-12,32 L-14,16 L-12,16 L-12,10 L-10,5 Z " fill="#89B04B" transform="translate(71,66)"/>
<path d="M0,0 L1,0 L2,5 L5,6 L5,8 L7,8 L7,6 L13,5 L14,12 L23,14 L23,16 L27,17 L27,19 L31,17 L34,14 L34,22 L36,22 L36,19 L40,19 L40,25 L35,27 L29,26 L28,30 L26,30 L26,26 L19,26 L16,24 L6,24 L1,21 L-8,16 L-9,13 L-12,12 L-6,10 L-4,3 Z " fill="#DAF191" transform="translate(128,39)"/>
<path d="M0,0 L20,0 L23,3 L23,5 L30,6 L34,10 L34,16 L31,24 L26,24 L21,20 L20,18 L12,16 L9,12 L5,11 L0,3 Z " fill="#BEB894" transform="translate(308,170)"/>
<path d="M0,0 L2,0 L2,3 L4,3 L4,5 L15,3 L19,2 L25,1 L28,10 L27,13 L26,9 L17,8 L17,10 L11,9 L11,7 L1,9 L-1,15 L-9,18 L-8,20 L-10,22 L-11,18 L-15,19 L-15,16 L-20,14 L-25,12 L-25,10 L-28,10 L-29,3 L-26,1 L-21,1 L-18,5 L-11,5 L-4,2 Z " fill="#B9DD80" transform="translate(199,77)"/>
<path d="M0,0 L4,0 L4,4 L0,5 L-2,16 L-3,19 L-18,17 L-19,14 L-28,12 L-28,14 L-34,14 L-35,10 L-40,10 L-43,10 L-47,9 L-44,8 L-49,7 L-49,5 L-43,5 L-40,5 L-40,3 L-34,3 L-36,5 L-34,6 L-34,10 L-32,10 L-32,12 L-27,10 L-26,8 L-31,7 L-31,5 L-27,5 L-27,1 L-9,1 L-9,3 L0,1 Z " fill="#BBD96B" transform="translate(219,103)"/>
<path d="M0,0 L3,0 L3,2 L5,2 L5,12 L3,17 L2,25 L1,25 L1,17 L-2,16 L-2,14 L-8,16 L-10,21 L-21,20 L-25,21 L-25,19 L-28,19 L-29,23 L-29,18 L-21,17 L-23,15 L-23,9 L-24,6 L-19,2 L-11,2 L-6,4 L-6,2 Z " fill="#D2E2A9" transform="translate(93,168)"/>
<path d="M0,0 L4,0 L3,4 L5,4 L6,10 L9,9 L9,7 L7,6 L7,3 L11,3 L11,5 L15,5 L14,2 L20,0 L24,1 L21,2 L20,5 L16,7 L20,8 L20,10 L13,10 L13,12 L18,13 L18,14 L9,14 L9,12 L7,12 L7,15 L10,16 L12,18 L18,18 L18,20 L13,20 L16,27 L17,30 L4,30 L0,26 L-2,26 L-3,28 L-3,25 L-6,25 L-6,22 L0,23 L0,21 L-9,20 L-9,18 L-6,18 L-6,15 L-2,14 L-1,10 L0,8 L-1,1 Z " fill="#ACC580" transform="translate(103,121)"/>
<path d="M0,0 L5,0 L10,2 L7,6 L1,6 L1,8 L4,9 L2,12 L6,12 L6,18 L10,18 L11,11 L16,13 L16,15 L11,16 L12,20 L10,20 L7,26 L9,26 L10,30 L5,30 L4,34 L9,35 L9,39 L3,39 L0,41 L-7,41 L-7,39 L-10,38 L-9,31 L-5,31 L-6,26 L-1,29 L-2,26 L-5,24 L-3,20 L-2,18 L-3,12 L-7,13 L-7,11 L-5,11 L-6,7 L1,4 L5,4 L5,2 L0,2 Z " fill="#C1F138" transform="translate(54,133)"/>
<path d="M0,0 L5,0 L7,7 L11,11 L11,13 L6,11 L5,10 L4,14 L5,23 L5,25 L2,25 L1,22 L-1,21 L-1,25 L-4,25 L-3,18 L-7,20 L-8,22 L-14,23 L-11,24 L-13,28 L-18,26 L-18,24 L-21,23 L-22,18 L-16,15 L-11,10 L-9,8 L-3,8 L-2,2 L0,2 Z " fill="#E4F4C4" transform="translate(162,3)"/>
<path d="M0,0 L5,0 L10,6 L14,6 L18,11 L19,14 L27,18 L34,19 L35,15 L39,14 L39,16 L41,16 L41,14 L44,14 L43,17 L41,17 L41,20 L45,21 L57,22 L57,25 L55,29 L56,32 L63,33 L68,34 L74,31 L76,32 L74,35 L71,36 L58,36 L48,31 L40,29 L39,26 L35,26 L35,23 L28,22 L16,16 L12,10 L8,8 L5,3 L0,1 Z " fill="#BEE076" transform="translate(228,242)"/>
<path d="M0,0 L5,1 L9,5 L9,7 L11,6 L18,6 L18,8 L10,8 L12,12 L12,15 L18,15 L19,13 L19,15 L22,16 L22,17 L14,18 L13,24 L11,26 L-1,25 L-7,28 L-17,28 L-27,23 L-31,22 L-34,33 L-40,38 L-43,35 L-47,25 L-48,24 L-48,15 L-43,11 L-41,15 L-41,18 L-43,19 L-42,24 L-43,29 L-41,29 L-40,32 L-38,32 L-37,30 L-35,30 L-35,24 L-35,21 L-28,20 L-24,20 L-17,24 L-17,26 L-15,24 L-15,23 L-7,23 L-6,18 L-4,22 L1,22 L2,23 L11,24 L11,17 L10,12 L8,12 L6,6 L0,2 Z " fill="#8BAC51" transform="translate(143,170)"/>
<path d="M0,0 L4,2 L4,4 L1,5 L4,6 L3,12 L5,12 L6,15 L6,26 L8,30 L7,34 L1,34 L-4,29 L-4,27 L-6,27 L-5,30 L-10,30 L-12,31 L-14,25 L-14,20 L-7,19 L-6,24 L-6,22 L-3,21 L-2,19 L0,19 L0,15 L-7,17 L-5,13 L-3,12 L-3,2 Z " fill="#DAF25B" transform="translate(91,47)"/>
<path d="M0,0 L7,0 L8,3 L13,5 L18,8 L23,16 L23,23 L13,23 L9,22 L6,23 L5,18 L2,17 L3,15 L6,16 L2,12 L2,2 L-1,1 Z " fill="#A0CA40" transform="translate(89,35)"/>
<path d="M0,0 L2,0 L2,2 L4,0 L10,0 L12,0 L16,0 L18,4 L20,5 L20,20 L26,22 L23,24 L18,23 L13,18 L5,17 L3,13 L-3,11 L0,10 Z " fill="#BACA76" transform="translate(230,100)"/>
<path d="M0,0 L2,0 L3,2 L3,11 L5,12 L3,12 L4,19 L3,22 L10,26 L8,27 L9,31 L19,36 L16,37 L13,36 L13,39 L16,39 L16,42 L11,42 L10,34 L6,33 L6,35 L8,35 L8,39 L6,39 L6,37 L4,37 L4,35 L0,35 L-1,29 L-4,29 L-4,27 L-9,22 L-8,19 L-4,19 L-5,13 L-1,9 L-2,4 L0,4 Z " fill="#DEF082" transform="translate(227,88)"/>
<path d="M0,0 L4,1 L4,3 L3,4 L6,4 L8,11 L5,14 L5,16 L8,18 L8,21 L4,20 L4,23 L0,23 L0,30 L2,31 L4,37 L7,50 L9,52 L14,52 L17,51 L17,45 L18,43 L29,43 L27,45 L19,45 L18,54 L12,57 L8,55 L5,52 L3,41 L-1,33 L-3,31 L-2,22 L-5,22 L-5,11 L-1,6 Z " fill="#BFEF41" transform="translate(45,141)"/>
<path d="M0,0 L2,3 L2,5 L10,3 L17,6 L23,14 L30,16 L28,22 L18,22 L18,24 L11,24 L14,22 L18,20 L17,17 L11,15 L1,13 L-2,11 L-3,4 Z " fill="#A2CB53" transform="translate(106,80)"/>
<path d="M0,0 L4,2 L6,5 L6,3 L9,4 L9,7 L10,3 L14,3 L17,0 L20,3 L22,3 L23,6 L25,10 L25,13 L23,13 L23,19 L10,19 L10,17 L17,16 L11,16 L11,14 L13,13 L10,13 L7,16 L7,12 L4,13 L-6,13 L-13,17 L-13,14 L-6,10 L-3,10 L-2,8 L2,10 L6,10 L2,6 L-1,7 Z M7,8 Z " fill="#B8C443" transform="translate(267,132)"/>
<path d="M0,0 L1,2 L5,3 L4,8 L3,10 L5,10 L6,6 L10,3 L17,2 L17,4 L23,4 L26,8 L24,13 L20,15 L1,15 L-1,8 Z M4,15 L10,15 L10,17 L5,17 Z " fill="#CBE493" transform="translate(231,81)"/>
<path d="M0,0 L4,3 L7,5 L9,11 L9,16 L6,17 L6,18 L0,18 L0,20 L2,21 L0,24 L-8,24 L-11,22 L-12,19 L-17,19 L-16,15 L-20,14 L-20,13 L-13,13 L-13,9 L-8,9 L-7,12 L-9,16 L-6,16 L-6,12 L-3,13 L-3,16 L0,16 L-1,9 L-2,3 Z " fill="#E2F2C3" transform="translate(167,12)"/>
<path d="M0,0 L3,0 L4,2 L2,5 L-1,5 L0,11 L-2,11 L-2,8 L-5,8 L-5,14 L-10,15 L-13,12 L-11,12 L-12,10 L-15,11 L-16,13 L-21,12 L-21,14 L-8,16 L-2,17 L-2,19 L-8,20 L-8,18 L-14,18 L-14,20 L-20,21 L-22,20 L-23,22 L-24,20 L-24,11 L-23,9 L-23,2 L-19,1 L-19,4 L-16,4 L-16,7 L-15,3 L-12,3 L-12,7 L-6,6 L-6,4 L-3,2 L0,2 Z " fill="#A4C769" transform="translate(96,119)"/>
<path d="M0,0 L3,4 L7,5 L8,11 L11,14 L11,17 L13,17 L13,19 L9,18 L8,16 L5,18 L2,18 L2,23 L-3,20 L-3,18 L-6,17 L-9,19 L-11,22 L-12,14 L-9,8 L-5,7 L-5,5 L-3,5 L-3,3 L-1,3 Z " fill="#C7D897" transform="translate(90,9)"/>
<path d="M0,0 L6,2 L6,0 L18,0 L21,4 L20,8 L21,7 L24,7 L24,10 L13,13 L8,14 L8,12 L11,12 L11,9 L6,9 L4,13 L-2,12 L-3,6 L-1,1 Z " fill="#A7BF35" transform="translate(74,140)"/>
<path d="M0,0 L2,1 L6,0 L8,1 L18,2 L18,5 L10,5 L10,9 L14,9 L14,7 L16,8 L16,11 L16,19 L12,22 L4,21 L2,15 L2,3 L0,3 Z " fill="#B4C157" transform="translate(94,56)"/>
<path d="M0,0 L3,1 L3,3 L0,3 L0,5 L-2,7 L-1,11 L5,11 L5,13 L2,13 L2,15 L-1,15 L-1,17 L3,17 L2,20 L-6,22 L-14,26 L-17,26 L-17,20 L-15,19 L-14,13 L-9,11 L-8,9 L-6,9 L-5,6 L-7,5 L-7,3 L-3,3 L-3,1 Z " fill="#D2EA7C" transform="translate(92,88)"/>
<path d="M0,0 L5,2 L5,4 L14,5 L19,9 L29,10 L31,11 L40,10 L43,10 L40,13 L38,13 L38,15 L35,17 L31,17 L31,21 L37,21 L37,22 L30,22 L29,25 L29,22 L27,21 L26,22 L24,21 L24,19 L18,18 L14,18 L13,13 L18,13 L18,11 L16,10 L12,8 L5,7 L3,3 L0,3 Z " fill="#A6B344" transform="translate(111,70)"/>
<path d="M0,0 L2,0 L5,5 L7,12 L7,18 L5,18 L3,24 L1,29 L0,29 L0,21 L1,19 L-1,19 L-1,17 L-6,22 L-8,24 L-9,36 L-10,36 L-11,25 L-18,20 L-18,18 L-22,16 L-22,14 L-18,13 L-17,17 L-12,18 L-6,18 L-6,13 L-5,11 L1,11 L2,6 Z " fill="#DEEAC8" transform="translate(173,17)"/>
<path d="M0,0 L6,2 L9,1 L12,2 L13,4 L16,5 L16,7 L29,7 L33,5 L37,6 L34,9 L33,14 L29,15 L22,13 L10,13 L7,12 L7,4 L4,4 L4,6 L0,5 L0,2 Z " fill="#9BB96E" transform="translate(121,148)"/>
<path d="M0,0 L2,4 L3,5 L3,12 L0,12 L2,19 L1,22 L-2,23 L1,23 L1,26 L-2,27 L-3,30 L-1,31 L-1,29 L7,30 L7,32 L1,33 L0,38 L-7,32 L-11,30 L-11,25 L-9,24 L-8,17 L-21,17 L-22,15 L-10,15 L-5,14 L-4,18 L-1,13 L-3,13 L-3,11 L1,9 Z " fill="#CADA5C" transform="translate(193,132)"/>
<path d="M0,0 L7,4 L10,10 L10,12 L19,14 L20,16 L26,17 L28,21 L28,24 L32,25 L34,31 L34,34 L38,35 L40,44 L44,50 L47,56 L49,63 L50,67 L45,63 L44,56 L41,50 L38,49 L37,46 L37,37 L34,37 L30,27 L26,25 L21,20 L17,16 L10,15 L5,11 L2,10 L2,8 L4,8 L4,6 L2,6 Z " fill="#BFCA72" transform="translate(317,121)"/>
<path d="M0,0 L2,0 L6,5 L10,13 L10,16 L5,18 L5,15 L1,14 L-4,11 L-2,10 L-4,9 L-8,13 L-9,8 L-15,5 L-15,3 L-10,4 L-10,2 L-5,1 L-1,1 Z " fill="#CCE041" transform="translate(309,111)"/>
<path d="M0,0 L1,2 L20,2 L20,4 L26,4 L28,6 L26,10 L19,10 L19,8 L3,9 L0,8 L-1,1 Z " fill="#B0EB51" transform="translate(191,96)"/>
<path d="M0,0 L2,0 L2,2 L5,2 L7,6 L4,6 L3,10 L1,10 L1,15 L5,14 L4,17 L0,19 L-3,19 L-3,21 L-5,21 L-5,19 L-9,18 L-9,11 L-7,8 L-4,7 Z M5,13 L10,13 L10,14 L5,14 Z " fill="#A2C839" transform="translate(138,26)"/>
<path d="M0,0 L5,0 L7,8 L5,11 L5,14 L1,13 L2,15 L5,17 L-5,17 L-1,16 L-1,13 L-6,12 L-6,9 L-10,9 L-10,5 Z " fill="#8AB24A" transform="translate(71,66)"/>
<path d="M0,0 L6,0 L6,1 L0,2 Z M-1,2 L1,4 L-2,4 L-3,7 L-14,7 L-14,9 L-20,12 L-25,11 L-24,17 L-12,18 L-12,19 L-24,20 L-26,16 L-26,13 L-30,11 L-31,7 L-28,6 L-28,4 L-19,4 L-8,5 Z " fill="#D1E260" transform="translate(162,108)"/>
<path d="M0,0 L11,0 L11,3 L9,7 L10,10 L17,11 L22,12 L28,9 L30,10 L28,13 L25,14 L12,14 L2,9 L-6,7 L-7,4 L-1,3 Z " fill="#BCDF7B" transform="translate(274,264)"/>
<path d="M0,0 L7,0 L7,6 L11,4 L12,1 L23,0 L23,2 L18,2 L21,9 L22,12 L9,12 L5,8 L3,8 L2,10 L2,7 L-1,7 L-1,4 L5,5 L5,3 L0,2 Z " fill="#A0B772" transform="translate(98,139)"/>
<path d="M0,0 L5,2 L6,3 L7,10 L11,13 L12,15 L10,19 L7,19 L7,17 L2,18 L1,11 L-1,10 L1,7 L-1,7 L-3,13 L-8,11 L-6,6 L-1,1 Z " fill="#CEE143" transform="translate(356,174)"/>
<path d="M0,0 L4,0 L4,2 L11,2 L11,0 L14,0 L14,2 L22,2 L22,9 L21,12 L6,10 L5,7 L1,5 Z " fill="#C4D772" transform="translate(195,110)"/>
<path d="M0,0 L3,0 L2,10 L4,14 L7,15 L7,17 L2,15 L-1,12 L-9,10 L-13,12 L-17,8 L-16,3 L-12,1 L-12,3 L-10,3 L-6,7 L-5,3 Z " fill="#97BD54" transform="translate(97,24)"/>
<path d="M0,0 L6,0 L6,2 L8,2 L7,8 L11,9 L11,11 L8,11 L7,13 L11,14 L7,14 L6,17 L1,12 L0,9 L-9,8 L-9,6 L-12,5 L-11,1 L-7,5 L1,5 L1,2 L-1,1 Z " fill="#97B572" transform="translate(177,180)"/>
<path d="M0,0 L11,1 L10,4 L4,3 L4,6 L10,7 L11,5 L10,10 L6,11 L4,15 L4,20 L7,21 L7,19 L13,19 L13,21 L8,21 L7,23 L2,22 L3,27 L-2,26 L0,21 L1,17 L-2,18 L-2,13 L-6,12 L5,10 L5,7 L2,7 L2,9 L-1,8 L1,8 Z " fill="#C8D45A" transform="translate(93,140)"/>
<path d="M0,0 L2,0 L3,2 L4,1 L9,1 L9,3 L7,3 L6,8 L4,7 L2,9 L1,7 L-4,11 L-5,15 L-1,16 L0,23 L-6,23 L-3,18 L-6,19 L-8,15 L-11,18 L-13,20 L-14,14 L-11,13 L-10,10 L-7,11 L-5,5 L-2,5 Z " fill="#C7DB40" transform="translate(312,126)"/>
<path d="M0,0 L3,2 L4,8 L9,10 L9,14 L2,16 L-4,16 L-4,14 L-9,14 L-8,8 L-5,6 L0,7 L1,2 L-1,1 Z " fill="#C1CF66" transform="translate(302,217)"/>
<path d="M0,0 L1,2 L0,8 L3,9 L2,10 L-10,10 L-13,9 L-14,12 L-13,17 L-15,19 L-18,12 L-20,8 L-21,3 L-15,2 L-7,7 L-2,7 Z M-12,13 L-10,13 L-9,16 L-11,17 L-13,16 Z " fill="#83A428" transform="translate(341,186)"/>
<path d="M0,0 L3,2 L4,0 L7,0 L10,3 L12,4 L12,7 L7,7 L7,8 L13,9 L13,12 L6,12 L6,10 L4,10 L3,14 L0,14 L-1,16 L0,12 L-4,11 L-4,13 L-8,13 L-8,9 L0,9 Z " fill="#A0AA76" transform="translate(112,52)"/>
<path d="M0,0 L9,0 L14,5 L12,9 L10,15 L8,16 L6,14 L3,14 L1,12 L4,10 L8,10 L8,8 L-3,6 L-3,4 L-1,4 Z " fill="#C2CD50" transform="translate(280,108)"/>
<path d="M0,0 L2,1 L1,3 L6,3 L6,4 L1,4 L1,6 L8,6 L9,9 L11,10 L11,16 L9,14 L3,14 L1,15 L1,12 L-6,12 L-6,8 L-3,8 L-3,2 Z " fill="#9FC559" transform="translate(58,104)"/>
<path d="M0,0 L5,0 L6,4 L9,6 L7,6 L8,9 L4,12 L2,12 L5,21 L4,25 L-2,24 L-2,23 L3,23 L1,18 L-4,19 L-2,18 L-2,2 L0,2 Z " fill="#81A635" transform="translate(99,165)"/>
<path d="M0,0 L8,4 L12,7 L12,9 L17,9 L13,11 L9,14 L8,17 L6,17 L7,10 L3,10 L2,12 L-1,12 L-3,5 L-2,3 L-4,2 Z " fill="#B9D78B" transform="translate(228,74)"/>
<path d="M0,0 L9,0 L9,1 L4,1 L3,4 L2,8 L6,13 L9,15 L10,33 L7,37 L5,37 L5,34 L7,34 L6,18 L2,16 L-1,11 L-1,2 Z " fill="#9AB081" transform="translate(183,201)"/>
<path d="M0,0 L2,0 L3,3 L5,4 L5,6 L10,7 L10,10 L4,10 L4,8 L-2,10 L-4,13 L-9,12 L-9,9 L-8,4 L-5,1 L0,2 Z " fill="#A7C96C" transform="translate(100,104)"/>
<path d="M0,0 L15,0 L22,2 L25,4 L22,7 L22,9 L15,9 L15,7 L10,5 L0,3 Z M25,2 Z " fill="#93B266" transform="translate(128,160)"/>
<path d="M0,0 L1,0 L2,5 L4,6 L6,12 L9,25 L11,27 L16,27 L19,26 L19,20 L20,18 L31,18 L29,20 L21,20 L20,29 L14,32 L10,30 L7,27 L5,16 L1,8 L-1,6 Z " fill="#B2CC6F" transform="translate(43,166)"/>
<path d="M0,0 L4,2 L4,4 L1,5 L4,6 L3,12 L5,12 L6,18 L0,19 L0,15 L-7,17 L-5,13 L-3,12 L-3,2 Z " fill="#BEE54D" transform="translate(91,47)"/>
<path d="M0,0 L5,0 L7,7 L11,11 L11,13 L6,11 L4,9 L1,12 L-8,13 L-7,10 L-9,8 L-3,8 L-2,2 L0,2 Z " fill="#CDD6BE" transform="translate(162,3)"/>
<path d="M0,0 L3,1 L3,4 L8,5 L14,5 L14,0 L20,0 L20,2 L17,2 L16,7 L12,11 L11,23 L10,23 L9,12 L2,7 L2,5 L-2,3 L-2,1 Z " fill="#CFE2AB" transform="translate(153,30)"/>
<path d="M0,0 L2,0 L2,2 L4,0 L10,0 L12,0 L16,1 L17,7 L11,7 L11,5 L3,4 L2,8 L8,7 L17,9 L17,12 L11,10 L2,9 L2,11 L-3,11 L0,10 Z " fill="#ADBC69" transform="translate(230,100)"/>
<path d="M0,0 L6,0 L2,2 L0,5 L-1,12 L0,14 L-2,14 L-2,16 L-8,15 L-13,15 L-12,8 L-9,8 L-7,8 L-6,5 L-1,4 Z " fill="#ABB281" transform="translate(157,65)"/>
<path d="M0,0 L20,0 L23,3 L23,5 L30,6 L34,10 L34,15 L32,14 L31,11 L28,11 L26,14 L26,12 L22,11 L23,8 L21,7 L20,3 L1,2 Z " fill="#BEBF7A" transform="translate(308,170)"/>
<path d="M0,0 L2,0 L4,4 L8,4 L8,6 L11,6 L12,2 L14,2 L11,14 L9,15 L9,13 L5,11 L-3,6 L-4,1 Z " fill="#C7DE47" transform="translate(355,187)"/>
<path d="M0,0 L4,1 L1,2 L0,5 L-4,7 L0,8 L0,10 L-7,10 L-7,12 L-2,13 L-2,14 L-11,14 L-11,12 L-14,11 L-13,9 L-11,9 L-11,7 L-13,6 L-13,3 L-9,3 L-9,5 L-5,5 L-6,2 Z " fill="#C2C89A" transform="translate(123,121)"/>
<path d="M0,0 L3,0 L1,6 L-1,16 L-5,20 L-5,11 L-4,8 L-8,7 L-7,2 Z " fill="#84A02E" transform="translate(361,201)"/>
<path d="M0,0 L7,0 L7,3 L14,4 L12,8 L9,10 L4,9 L-2,10 L-2,8 L-5,8 L-6,12 L-6,7 L2,6 L0,4 Z " fill="#DAEABB" transform="translate(70,179)"/>
<path d="M0,0 L5,0 L10,6 L14,6 L18,11 L19,14 L27,18 L36,22 L37,26 L35,26 L35,23 L28,22 L16,16 L12,10 L8,8 L5,3 L0,1 Z " fill="#B1C095" transform="translate(228,242)"/>
<path d="M0,0 L4,0 L5,4 L-2,4 L-4,8 L-6,8 L-5,17 L-3,24 L-10,24 L-12,21 L-8,21 L-9,13 L-8,10 L-10,10 L-11,5 L-4,4 L-3,3 L2,3 L2,1 Z M-12,7 Z " fill="#D5DD65" transform="translate(238,162)"/>
<path d="M0,0 L5,1 L7,7 L15,8 L13,10 L4,10 L5,7 L-1,8 L-2,6 L-2,10 L-5,10 L-5,12 L-9,12 L-10,9 L-7,9 L-6,8 L-3,8 L-3,6 L-9,6 L-9,4 L0,4 Z " fill="#B5D567" transform="translate(100,93)"/>
<path d="M0,0 L2,0 L2,2 L7,2 L7,6 L9,6 L9,4 L14,6 L14,8 L11,7 L10,11 L4,10 L-3,5 L-3,3 L-6,2 Z " fill="#C6D986" transform="translate(122,49)"/>
<path d="M0,0 L2,2 L1,9 L-5,15 L-10,16 L-12,12 L-10,12 L-10,10 L-6,11 L-4,8 L-7,7 L-5,2 Z " fill="#BACB65" transform="translate(318,186)"/>
<path d="M0,0 L13,0 L13,2 L15,2 L20,8 L17,9 L12,4 L12,2 L5,2 L3,3 L0,2 L-1,8 L1,9 L0,13 L-3,14 L-4,12 L-4,3 Z M1,6 L4,8 L1,8 Z " fill="#AFAA4A" transform="translate(236,167)"/>
<path d="M0,0 L11,0 L15,1 L15,3 L9,3 L9,1 L6,1 L9,7 L6,8 L6,12 L-1,12 L0,6 Z " fill="#A5B079" transform="translate(139,127)"/>
<path d="M0,0 L5,1 L7,7 L5,7 L7,13 L4,13 L3,15 L3,13 L0,13 L-2,8 L-3,3 L0,3 Z " fill="#A6CD36" transform="translate(220,85)"/>
<path d="M0,0 L11,2 L13,5 L29,5 L26,8 L19,8 L19,10 L22,11 L13,11 L13,8 L7,4 L7,2 L-3,3 L-3,5 L-9,6 L-4,2 Z " fill="#A8C28A" transform="translate(166,72)"/>
<path d="M0,0 L2,2 L2,9 L0,14 L-1,22 L-2,22 L-2,14 L-5,13 L-5,11 L-7,9 L-8,5 L-5,5 L-5,3 L0,3 Z " fill="#C5CEA5" transform="translate(96,171)"/>
<path d="M0,0 L6,2 L6,0 L18,0 L21,4 L15,3 L14,7 L12,8 L12,5 L4,5 L4,3 L2,3 L2,6 L0,6 L-1,1 Z " fill="#ABC244" transform="translate(74,140)"/>
<path d="M0,0 L1,4 L0,8 L1,17 L1,19 L-2,19 L-3,16 L-5,15 L-5,19 L-8,19 L-7,12 L-7,8 L-4,8 L-2,3 L0,3 Z " fill="#D7E6BD" transform="translate(166,9)"/>
<path d="M0,0 L9,0 L10,5 L14,7 L19,10 L19,12 L12,12 L12,14 L5,14 L8,12 L12,10 L11,7 L5,5 L-3,4 Z " fill="#9EC75E" transform="translate(112,90)"/>
<path d="M0,0 L4,1 L1,7 L-2,7 L-3,11 L-4,13 L-8,13 L-10,17 L-15,22 L-19,25 L-21,24 L-18,21 L-13,16 L-12,13 L-10,13 L-10,11 L-5,9 L-1,1 Z " fill="#B2C491" transform="translate(351,231)"/>
<path d="M0,0 L2,0 L3,2 L3,11 L5,12 L3,12 L4,19 L1,20 L-2,15 L-5,13 L-1,9 L-2,4 L0,4 Z " fill="#CCD172" transform="translate(227,88)"/>
<path d="M0,0 L3,0 L5,2 L10,1 L11,4 L13,5 L12,7 L15,7 L15,10 L17,12 L14,12 L13,14 L12,13 L10,14 L9,8 L4,8 L4,7 L10,7 L8,6 L8,4 L6,6 L-1,6 L1,2 Z " fill="#97A740" transform="translate(208,91)"/>
<path d="M0,0 L0,3 L-3,4 L-4,8 L-7,9 L2,11 L2,13 L-4,14 L-1,15 L-3,19 L-8,17 L-8,15 L-11,14 L-12,9 L-6,6 L-1,1 Z " fill="#CDDAB7" transform="translate(152,12)"/>
<path d="M0,0 L10,1 L12,3 L13,6 L11,12 L9,11 L5,10 L0,2 Z " fill="#C1B98E" transform="translate(308,171)"/>
<path d="M0,0 L3,0 L3,2 L5,2 L4,5 L3,6 L-2,6 L-3,12 L-1,14 L-5,15 L-7,9 L-6,7 L-11,6 L-10,3 L-6,4 L-6,2 Z " fill="#E2F5B2" transform="translate(93,168)"/>
<path d="M0,0 L21,4 L21,6 L15,7 L15,5 L9,5 L9,7 L3,8 L0,6 Z " fill="#A9C683" transform="translate(73,132)"/>
<path d="M0,0 L3,0 L3,2 L7,1 L8,2 L13,1 L13,5 L11,5 L10,8 L7,8 L7,10 L5,9 L5,6 L-1,6 L-2,10 L-2,5 L-6,4 L0,3 Z " fill="#AED251" transform="translate(78,61)"/>
<path d="M0,0 L9,0 L13,1 L15,3 L15,8 L12,7 L11,8 L6,8 L5,6 L-1,5 Z " fill="#96CE3C" transform="translate(97,49)"/>
<path d="M0,0 L5,0 L5,2 L12,3 L13,10 L10,6 L5,6 L4,8 L1,8 L0,13 L-4,13 L-3,10 L-5,9 L-5,7 L1,7 L2,4 L0,3 Z " fill="#C1F243" transform="translate(60,132)"/>
<path d="M0,0 L4,0 L4,2 L10,2 L10,4 L12,4 L14,8 L20,10 L20,12 L6,10 L5,7 L1,5 Z " fill="#CBEF88" transform="translate(195,110)"/>
<path d="M0,0 L1,3 L0,11 L2,11 L0,15 L-3,15 L-4,19 L-8,18 L-5,17 L-4,11 L-8,11 L-8,14 L-10,14 L-11,10 L-10,8 L-6,9 L-6,6 L-3,7 Z " fill="#CFDDBA" transform="translate(172,47)"/>
<path d="M0,0 L6,0 L6,2 L2,2 L3,4 L5,4 L5,6 L7,6 L9,11 L4,10 L-6,7 L-7,4 L-1,3 Z " fill="#ACC380" transform="translate(274,264)"/>
<path d="M0,0 L2,0 L2,4 L7,4 L5,5 L5,7 L12,9 L17,15 L15,17 L10,11 L5,9 L4,6 L1,6 L1,4 L-1,4 L-3,9 L-5,12 L-7,11 L-4,6 L-2,1 Z " fill="#A2C358" transform="translate(139,22)"/>
<path d="M0,0 L2,1 L-5,9 L-5,14 L-9,15 L-14,16 L-18,16 L-19,20 L-21,19 L-19,15 L-12,11 L-10,11 L-8,7 L-6,6 L-5,3 Z M-11,12 Z M-12,13 Z M-13,14 Z " fill="#A8A74C" transform="translate(286,151)"/>
<path d="M0,0 L6,1 L6,3 L10,3 L9,6 L1,8 L-5,10 L-5,6 L-3,6 L-1,1 Z " fill="#D1EE71" transform="translate(85,102)"/>
<path d="M0,0 L2,4 L2,8 L1,13 L3,17 L5,18 L4,28 L6,29 L2,29 L2,24 L0,24 L0,16 L-2,15 L-1,8 Z " fill="#9BAF88" transform="translate(185,239)"/>
<path d="M0,0 L2,1 L3,3 L13,8 L10,9 L7,8 L7,11 L10,11 L10,14 L5,14 L4,6 L0,5 L0,7 L2,7 L2,11 L0,11 L0,9 L-2,9 L-1,1 Z " fill="#D3E77A" transform="translate(233,116)"/>
<path d="M0,0 L5,2 L5,4 L0,5 L1,9 L-5,10 L-5,8 L-7,8 L-7,6 L-12,6 L-12,1 L-5,1 L-5,7 L-1,7 Z " fill="#B0E237" transform="translate(65,144)"/>
<path d="M0,0 L8,0 L7,4 L3,4 L3,6 L-6,6 L-6,4 L-8,4 L-8,1 Z " fill="#C5DF67" transform="translate(202,104)"/>
<path d="M0,0 L1,3 L7,2 L9,7 L10,11 L4,11 L8,10 L8,8 L2,8 L2,10 L-2,9 L-1,2 Z " fill="#D8F56A" transform="translate(98,151)"/>
<path d="M0,0 L2,4 L3,5 L3,12 L0,12 L2,19 L1,22 L-2,23 L1,23 L1,25 L-4,25 L-5,20 L-1,13 L-3,13 L-3,11 L1,9 Z " fill="#BED058" transform="translate(193,132)"/>
<path d="M0,0 L6,0 L6,2 L1,2 L4,9 L5,12 L-3,12 L-4,9 L-9,9 L-9,7 L0,8 L0,6 L-5,6 L-2,5 Z " fill="#AFC58B" transform="translate(115,139)"/>
<path d="M0,0 L7,0 L14,3 L15,7 L7,8 L0,2 Z " fill="#B5D189" transform="translate(110,94)"/>
<path d="M0,0 L7,0 L8,6 L4,9 L-4,8 L-6,2 L-1,1 L-2,7 L0,6 Z " fill="#B7C162" transform="translate(102,69)"/>
<path d="M0,0 L3,1 L1,4 L1,7 L-6,8 L-10,9 L-17,13 L-20,13 L-20,11 L-13,7 L-11,7 L-11,5 L-4,4 L-2,5 L-2,1 Z " fill="#B7CD8D" transform="translate(327,256)"/>
<path d="M0,0 L6,0 L6,2 L8,3 L4,3 L4,8 L1,8 L2,11 L0,11 L0,9 L-9,8 L-9,6 L-12,5 L-11,1 L-7,5 L1,5 L1,2 L-1,1 Z " fill="#8BA56B" transform="translate(177,180)"/>
<path d="M0,0 L1,4 L3,4 L3,6 L5,7 L2,7 L1,14 L-1,20 L-3,29 L-5,28 L-2,8 Z " fill="#A6BE7A" transform="translate(51,112)"/>
<path d="M0,0 L1,2 L7,3 L6,8 L8,12 L5,12 L5,17 L3,14 L3,11 L0,11 Z " fill="#B2D15B" transform="translate(40,152)"/>
<path d="M0,0 L9,1 L9,3 L14,3 L11,4 L10,9 L5,8 L5,3 L2,4 L1,10 L-2,10 L-2,3 Z " fill="#ABCF65" transform="translate(54,102)"/>
<path d="M0,0 L7,4 L10,10 L10,12 L19,14 L20,18 L18,18 L17,16 L10,15 L5,11 L2,10 L2,8 L4,8 L4,6 L2,6 Z " fill="#C4D362" transform="translate(317,121)"/>
<path d="M0,0 L3,3 L4,0 L6,0 L7,1 L9,0 L8,5 L10,5 L10,7 L8,7 L7,10 L2,10 L-1,7 Z " fill="#C2CE48" transform="translate(283,126)"/>
<path d="M0,0 L1,4 L-2,5 L-2,12 L-3,13 L-1,13 L-1,7 L1,9 L1,15 L-8,15 L-10,12 L-7,11 L-7,9 L-4,8 L-4,4 L-6,3 L0,2 Z " fill="#E0E9A4" transform="translate(99,82)"/>
<path d="M0,0 L2,0 L1,12 L-6,12 L-7,13 L-15,13 L-19,12 L-19,10 L-10,11 L-5,8 L-2,8 L-2,1 Z " fill="#99B081" transform="translate(211,255)"/>
<path d="M0,0 L8,0 L7,2 L3,2 L3,4 L7,5 L9,8 L4,9 L2,7 L-4,7 L-5,4 Z " fill="#E2F7B9" transform="translate(74,170)"/>
<path d="M0,0 L14,1 L16,5 L14,7 L10,7 L9,10 L5,11 L5,6 L10,6 L10,2 L4,4 L0,4 Z " fill="#8FB53E" transform="translate(106,150)"/>
<path d="M0,0 L3,0 L6,9 L5,12 L4,8 L-5,7 L-5,9 L-11,8 L-11,6 L-2,5 L-3,1 Z " fill="#AED569" transform="translate(221,78)"/>
<path d="M0,0 L1,3 L-1,8 L-15,7 L-19,4 L-12,2 L-12,4 L-2,4 L-2,1 Z " fill="#88A033" transform="translate(356,223)"/>
<path d="M0,0 L16,1 L16,9 L15,13 L17,14 L21,18 L20,21 L14,16 L11,15 L11,10 L13,9 L14,2 L1,2 Z " fill="#C3D56F" transform="translate(171,147)"/>
<path d="M0,0 L11,1 L8,4 L8,6 L5,6 L5,8 L-2,8 L-3,2 Z " fill="#C0E77B" transform="translate(138,96)"/>
<path d="M0,0 L3,2 L0,3 L0,5 L3,5 L3,8 L0,8 L0,10 L-2,10 L-1,20 L-3,20 L-5,15 L-4,7 L-2,1 Z " fill="#A6B669" transform="translate(87,33)"/>
<path d="M0,0 L1,4 L4,8 L3,13 L-3,15 L-5,13 L-1,9 L-2,7 L-3,10 L-4,10 L-6,10 L-7,7 L-2,2 Z " fill="#BACB5D" transform="translate(317,198)"/>
<path d="M0,0 L3,4 L3,7 L1,8 L2,13 L0,15 L-4,13 L-4,4 Z " fill="#8EB344" transform="translate(99,181)"/>
<path d="M0,0 L2,0 L2,2 L6,4 L7,7 L2,6 L1,10 L-1,10 L-1,20 L-3,19 L-2,6 L-5,5 L-4,2 L0,2 Z " fill="#CFDF80" transform="translate(85,74)"/>
<path d="M0,0 L5,0 L5,3 L10,4 L10,7 L6,8 L-1,8 L-1,1 Z " fill="#799D40" transform="translate(60,75)"/>
<path d="M0,0 L5,1 L5,4 L-4,4 L-9,7 L-18,7 L-17,5 L-11,4 L-10,2 Z " fill="#B3C59A" transform="translate(216,69)"/>
<path d="M0,0 L2,2 L4,2 L4,0 L6,0 L7,4 L7,6 L9,8 L10,9 L10,11 L7,12 L5,14 L1,12 L2,10 L4,11 L2,5 L1,7 L-2,7 Z " fill="#B9C960" transform="translate(297,194)"/>
<path d="M0,0 L4,1 L4,3 L5,4 L4,9 L6,9 L6,11 L-1,12 L-4,10 L-1,6 Z " fill="#ADD04D" transform="translate(45,141)"/>
<path d="M0,0 L1,4 L1,6 L1,9 L3,11 L-2,11 L-4,12 L-6,6 L-6,1 Z " fill="#D3E857" transform="translate(83,66)"/>
<path d="M0,0 L5,5 L8,11 L6,12 L6,9 L-6,9 L-6,7 L-4,7 L-4,4 L0,3 Z " fill="#9BC455" transform="translate(104,41)"/>
<path d="M0,0 L6,1 L6,3 L2,3 L2,5 L-4,6 L-5,9 L-7,9 L-5,14 L-6,17 L-4,18 L-9,19 L-8,14 L-9,9 L-8,7 L-5,7 L-4,3 L0,3 Z " fill="#C2E866" transform="translate(76,165)"/>
<path d="M0,0 L2,1 L2,3 L5,4 L5,6 L9,8 L12,10 L4,11 L4,9 L-1,7 L-2,9 L-3,3 L0,2 Z " fill="#C5EF7E" transform="translate(108,93)"/>
<path d="M0,0 L5,1 L4,4 L8,2 L10,5 L9,9 L3,9 L-2,4 Z " fill="#E1F25D" transform="translate(89,72)"/>
<path d="M0,0 L5,2 L5,4 L14,5 L19,9 L29,10 L29,11 L20,11 L19,13 L19,11 L16,10 L12,8 L5,7 L3,3 L0,3 Z " fill="#A6B157" transform="translate(111,70)"/>
<path d="M0,0 L9,0 L9,4 L6,5 L4,7 L4,5 L-8,5 L-8,7 L-14,5 L-12,4 L-6,4 L-6,2 L0,2 L0,4 L6,3 L6,1 L0,1 Z " fill="#A1B96E" transform="translate(88,135)"/>
<path d="M0,0 L5,0 L5,6 L8,10 L8,12 L6,12 L6,10 L-3,9 Z " fill="#A3CC57" transform="translate(53,119)"/>
<path d="M0,0 L2,3 L2,5 L4,4 L11,4 L11,5 L6,6 L14,8 L14,11 L5,10 L2,11 L2,8 L0,8 Z " fill="#B2BE73" transform="translate(230,91)"/>
<path d="M0,0 L2,2 L2,5 L6,7 L6,9 L3,10 L3,8 L-2,7 L-3,5 L-4,9 L-10,10 L-8,8 L-5,8 L-5,1 Z " fill="#CED091" transform="translate(102,86)"/>
<path d="M0,0 L1,4 L1,8 L3,8 L3,5 L7,5 L7,11 L2,13 L-3,12 L-1,11 L-1,1 Z " fill="#DAEFA4" transform="translate(161,53)"/>
<path d="M0,0 L3,0 L2,4 L5,1 L9,2 L10,5 L6,5 L5,9 L1,10 L1,4 L-3,3 Z " fill="#AEC289" transform="translate(104,135)"/>
<path d="M0,0 L6,0 L6,2 L8,2 L7,5 L-2,8 L-5,9 L-12,9 L-9,8 L-9,6 L0,4 L5,4 L5,2 L0,2 Z " fill="#9BAB81" transform="translate(155,147)"/>
<path d="M0,0 L8,0 L8,2 L6,3 L6,5 L3,5 L1,8 L-3,7 L-6,5 L-5,2 L-4,4 Z " fill="#C6D755" transform="translate(184,134)"/>
<path d="M0,0 L2,1 L-1,3 L-8,5 L-11,8 L-16,8 L-20,13 L-21,8 L-15,5 L-13,5 L-13,3 Z " fill="#BFC755" transform="translate(274,115)"/>
<path d="M0,0 L1,2 L0,8 L3,9 L2,10 L-10,10 L-13,9 L-14,11 L-13,6 L-11,4 L-7,7 L-2,7 Z " fill="#889F32" transform="translate(341,186)"/>
<path d="M0,0 L9,1 L11,4 L24,5 L24,7 L14,8 L9,7 L8,3 L0,2 Z " fill="#CBDD6B" transform="translate(208,156)"/>
<path d="M0,0 L1,0 L1,7 L4,10 L5,9 L10,9 L11,11 L6,11 L9,13 L1,13 L-2,11 L-3,4 Z " fill="#9CB759" transform="translate(106,80)"/>
<path d="M0,0 L7,3 L7,5 L12,5 L8,7 L4,10 L3,13 L1,13 L2,6 L-1,5 L-2,2 Z " fill="#C2D293" transform="translate(233,78)"/>
<path d="M0,0 L2,1 L5,13 L7,13 L7,8 L9,8 L10,6 L11,13 L5,16 L2,13 Z " fill="#C3F045" transform="translate(49,178)"/>
<path d="M0,0 L3,0 L4,4 L7,9 L0,9 L-4,6 L-2,2 Z " fill="#C1F436" transform="translate(53,151)"/>
<path d="M0,0 L2,1 L0,5 L-5,5 L-5,7 L0,7 L0,11 L3,12 L-3,11 L-8,7 L-8,3 L-3,3 L-3,1 Z " fill="#96AC61" transform="translate(201,141)"/>
<path d="M0,0 L8,0 L8,3 L-9,5 L-11,7 L-13,9 L-15,6 L-13,6 L-13,4 L-10,2 Z " fill="#B9E07B" transform="translate(211,80)"/>
<path d="M0,0 L3,1 L1,7 L-3,11 L-3,9 L-6,9 L-4,3 L-9,3 L-9,1 L-2,1 L-1,4 L1,4 Z " fill="#A19B4D" transform="translate(294,160)"/>
<path d="M0,0 L1,3 L-1,9 L-1,15 L2,16 L1,19 L0,18 L-2,20 L-4,11 L-7,10 L-6,6 L-4,6 L-4,4 Z " fill="#BCCB47" transform="translate(328,145)"/>
<path d="M0,0 L2,0 L6,5 L5,7 L3,6 L3,4 L-8,5 L-13,6 L-15,5 L-15,3 L-10,4 L-10,2 L-5,1 L-1,1 Z " fill="#B6C06B" transform="translate(309,111)"/>
<path d="M0,0 L3,1 L3,4 L11,6 L10,10 L4,9 L2,5 L-2,3 L-2,1 Z " fill="#DEF2B1" transform="translate(153,30)"/>
<path d="M0,0 L4,0 L5,6 L8,9 L8,12 L10,12 L10,14 L6,13 L5,9 L1,7 L1,5 L-4,5 L-3,2 L0,2 Z " fill="#C1CCAD" transform="translate(93,14)"/>
<path d="M0,0 L2,0 L2,2 L5,1 L13,1 L12,3 L3,3 L3,9 L1,9 L0,4 L-8,4 L-8,2 L0,2 Z " fill="#88A95E" transform="translate(181,170)"/>
<path d="M0,0 L3,1 L4,8 L10,6 L14,3 L12,7 L9,10 L1,11 L0,8 L-2,9 L-1,5 Z " fill="#C9D86F" transform="translate(304,193)"/>
<path d="M0,0 L4,0 L3,4 L5,4 L5,12 L1,12 L-1,1 Z " fill="#B2BE86" transform="translate(103,121)"/>
<path d="M0,0 L4,2 L7,7 L7,10 L2,12 L2,9 L0,8 L-1,2 Z " fill="#D0E14B" transform="translate(312,117)"/>
<path d="M0,0 L2,1 L3,0 L7,1 L6,5 L12,6 L12,7 L4,8 L4,5 L2,5 L2,7 L-3,6 L-3,4 L0,4 Z " fill="#C3DB83" transform="translate(98,99)"/>
<path d="M0,0 L5,2 L10,7 L2,9 L-4,9 L-4,7 L1,6 L1,4 L0,3 Z " fill="#7F9C19" transform="translate(354,194)"/>
<path d="M0,0 L2,2 L6,6 L13,8 L13,10 L9,9 L3,11 L3,7 L-2,5 L-2,1 Z " fill="#A4A070" transform="translate(316,180)"/>
<path d="M0,0 L3,2 L3,7 L2,11 L-3,13 L-4,5 L1,4 Z " fill="#BBEA45" transform="translate(69,144)"/>
<path d="M0,0 L4,1 L0,2 Z M-6,1 L-4,1 L-4,3 L-2,3 L-1,1 L0,3 L-2,9 L-6,9 L-7,3 L-9,2 Z " fill="#E5F78A" transform="translate(233,114)"/>
<path d="M0,0 L7,1 L5,6 L-2,6 L-2,4 L-5,3 Z " fill="#A8D449" transform="translate(212,100)"/>
<path d="M0,0 L8,0 L13,2 L12,4 L7,4 L6,7 L1,7 L1,3 L6,3 L6,1 L0,1 Z " fill="#A7B743" transform="translate(115,77)"/>
<path d="M0,0 L2,0 L3,2 L5,0 L5,4 L3,6 L-6,7 L-5,4 L-7,2 L-1,2 Z " fill="#BDC9AA" transform="translate(160,9)"/>
<path d="M0,0 L15,0 L15,2 L12,3 L10,5 L0,3 Z " fill="#8AAD5B" transform="translate(128,160)"/>
<path d="M0,0 L5,0 L10,2 L7,6 L1,6 L1,8 L4,9 L-3,8 L-4,6 L1,4 L5,4 L5,2 L0,2 Z " fill="#AEDE2F" transform="translate(54,133)"/>
<path d="M0,0 L6,0 L6,1 L0,2 Z M-1,2 L1,4 L-2,4 L-3,7 L-18,8 L-19,5 L-8,5 Z " fill="#BEDE72" transform="translate(162,108)"/>
<path d="M0,0 L6,0 L8,4 L8,7 L12,8 L13,12 L6,8 L1,3 Z " fill="#CDD778" transform="translate(337,138)"/>
<path d="M0,0 L1,2 L0,8 L-3,8 L-4,10 L-3,6 L-7,5 L-7,7 L-11,7 L-11,3 L-2,3 L-2,1 Z " fill="#9B9669" transform="translate(115,58)"/>
<path d="M0,0 L4,2 L4,4 L1,5 L4,6 L3,9 L-3,9 L-3,2 Z " fill="#B9D14B" transform="translate(91,47)"/>
<path d="M0,0 L3,4 L3,7 L-6,9 L-8,11 L-10,11 L-9,8 L-5,7 L-5,5 L-3,5 L-3,3 L-1,3 Z " fill="#B9C39D" transform="translate(90,9)"/>
<path d="M0,0 L4,1 L1,1 L1,4 L7,5 L7,6 L-1,6 L-1,4 L-4,4 L-4,6 L-11,6 L-11,4 L-5,4 L-5,2 Z " fill="#B3C16A" transform="translate(210,106)"/>
<path d="M0,0 L5,1 L6,6 L7,13 L6,9 L-1,10 L0,4 Z " fill="#E8F5CE" transform="translate(169,15)"/>
<path d="M0,0 L2,0 L1,8 L-6,12 L-6,6 L-2,5 L-1,1 Z " fill="#9DB27E" transform="translate(221,244)"/>
<path d="M0,0 L11,1 L10,4 L4,3 L4,6 L7,7 L5,8 L2,7 L2,9 L-1,8 L1,8 Z " fill="#B2C45A" transform="translate(93,140)"/>
<path d="M0,0 L1,2 L7,3 L5,4 L5,7 L10,7 L9,9 L0,8 L-1,1 Z " fill="#A5DF41" transform="translate(191,96)"/>
<path d="M0,0 L5,0 L10,6 L14,6 L18,11 L17,13 L8,8 L5,3 L0,1 Z " fill="#B4C795" transform="translate(228,242)"/>
<path d="M0,0 L6,0 L2,2 L0,5 L-1,12 L0,14 L-2,14 L-2,16 L-4,15 L-3,13 L-5,12 L-3,4 L-1,4 Z " fill="#B3BB97" transform="translate(157,65)"/>
<path d="M0,0 L4,0 L4,2 L11,2 L11,5 L8,7 L5,7 L5,12 L4,12 L4,5 L0,1 Z " fill="#A2B478" transform="translate(87,20)"/>
<path d="M0,0 L2,1 L1,4 L3,4 L3,2 L8,2 L9,6 L7,7 L-1,5 L-1,3 L-3,3 L-3,1 Z " fill="#ABCF65" transform="translate(321,242)"/>
<path d="M0,0 L2,3 L-1,5 L3,6 L4,3 L7,4 L4,9 L-2,8 L-4,5 L-3,1 Z " fill="#CAD86C" transform="translate(301,209)"/>
<path d="M0,0 L5,0 L5,3 L4,4 L5,6 L3,6 L2,9 L-3,8 L-2,3 Z " fill="#C9DB3F" transform="translate(301,126)"/>
<path d="M0,0 L1,0 L2,5 L5,6 L5,8 L7,8 L7,6 L9,7 L9,9 L4,9 L4,7 L-3,7 L-4,9 L-4,3 Z " fill="#B7C97B" transform="translate(128,39)"/>
<path d="M0,0 L2,1 L0,4 L-3,5 L-16,5 L-19,2 L-11,2 L-6,3 Z " fill="#ADBD91" transform="translate(302,273)"/>
<path d="M0,0 L5,0 L5,5 L4,3 L2,4 L3,6 L1,7 L-1,10 L-3,7 L-2,2 Z " fill="#97B66C" transform="translate(187,202)"/>
<path d="M0,0 L4,1 L11,6 L16,6 L16,8 L7,9 L4,4 Z " fill="#A4BD57" transform="translate(182,162)"/>
<path d="M0,0 L2,0 L3,9 L1,9 L0,13 L-9,14 L-9,13 L-1,12 L-1,1 Z " fill="#A4AE59" transform="translate(241,148)"/>
<path d="M0,0 L5,0 L6,3 L-1,4 L-4,7 L-6,7 L-6,9 L-8,9 L-6,5 L-4,1 Z " fill="#8DAE68" transform="translate(164,153)"/>
<path d="M0,0 L3,1 L3,3 L0,3 L0,5 L-2,7 L-1,9 L-4,10 L-6,9 L-5,6 L-7,5 L-7,3 L-3,3 L-3,1 Z " fill="#C6D08A" transform="translate(92,88)"/>
<path d="M0,0 L9,1 L9,2 L3,2 L3,4 L8,4 L8,7 L2,7 L1,10 Z " fill="#8DAE61" transform="translate(57,82)"/>
<path d="M0,0 L3,0 L3,3 L5,3 L5,7 L9,6 L14,9 L14,11 L3,8 L2,1 Z " fill="#A6C93D" transform="translate(139,43)"/>
<path d="M0,0 L5,3 L5,1 L11,1 L11,3 L6,3 L5,5 L0,4 L1,9 L-4,8 L-2,3 Z " fill="#B4D245" transform="translate(95,158)"/>
<path d="M0,0 L4,1 L4,3 L7,4 L-3,5 L-10,9 L-10,6 L-3,2 L0,2 Z " fill="#B2BF45" transform="translate(264,140)"/>
<path d="M0,0 L7,0 L11,3 L12,7 L4,7 L4,4 L6,2 L0,2 Z " fill="#C6CB95" transform="translate(125,118)"/>
<path d="M0,0 L1,2 L-1,2 L-2,11 L-4,13 L-7,13 L-7,7 L-5,6 L-4,3 L-2,3 L-2,1 Z " fill="#D5E992" transform="translate(82,101)"/>
<path d="M0,0 L2,0 L3,3 L5,4 L4,7 L4,5 L1,5 L1,7 L-5,7 L-3,1 L0,2 Z " fill="#95B05F" transform="translate(100,104)"/>
<path d="M0,0 L2,0 L2,5 L-2,11 L-5,12 L-3,6 L-4,7 L-6,7 L-6,4 L-1,2 Z " fill="#C8DC86" transform="translate(84,97)"/>
<path d="M0,0 L4,1 L1,1 L1,3 L7,4 L7,2 L11,2 L11,5 L7,5 L7,7 L1,7 Z " fill="#92B42F" transform="translate(209,83)"/>
<path d="M0,0 L11,2 L12,6 L7,4 L7,2 L-3,3 L-3,5 L-9,6 L-4,2 Z " fill="#B2C69D" transform="translate(166,72)"/>
<path d="M0,0 L4,2 L1,2 L-1,9 L-10,10 L-8,8 L-5,8 L-4,4 Z " fill="#DBE9C5" transform="translate(153,12)"/>
<path d="M0,0 L3,0 L3,2 L9,2 L9,7 L12,9 L11,12 L6,7 L0,2 Z " fill="#CADA6E" transform="translate(145,128)"/>
<path d="M0,0 L1,4 L8,6 L8,7 L-6,6 L-9,5 L-9,3 L-4,3 Z " fill="#8DAE63" transform="translate(84,128)"/>
<path d="M0,0 L6,5 L7,10 L19,11 L19,12 L7,13 L5,9 L5,6 L1,4 Z " fill="#CCD970" transform="translate(131,115)"/>
<path d="M0,0 L13,2 L15,5 L21,6 L19,7 L19,9 L14,8 L9,3 L1,2 Z " fill="#E7E8D2" transform="translate(280,106)"/>
<path d="M0,0 L1,4 L-4,6 L-9,6 L-9,2 Z " fill="#AED63F" transform="translate(208,83)"/>
<path d="M0,0 L5,1 L5,5 L2,5 L2,7 L-4,9 L-4,4 L-2,5 Z " fill="#96C834" transform="translate(97,39)"/>
<path d="M0,0 L2,0 L0,9 L-5,8 L-3,4 L-4,1 Z " fill="#96BC29" transform="translate(136,33)"/>
<path d="M0,0 L1,0 L2,5 L4,6 L6,12 L7,14 L7,21 L6,21 L3,12 L0,7 L-1,2 Z " fill="#B8CE83" transform="translate(43,166)"/>
<path d="M0,0 L7,1 L8,4 L3,5 L-2,4 L-2,6 L-4,6 L-4,1 Z " fill="#C9EA5E" transform="translate(101,161)"/>
<path d="M0,0 L4,1 L1,8 L-1,7 L-2,9 L3,9 L3,11 L-2,11 L-4,7 L-3,4 L0,4 Z " fill="#C5D43C" transform="translate(333,160)"/>
<path d="M0,0 L4,2 L3,4 L5,4 L6,10 L4,14 L3,11 L2,7 L-1,4 Z " fill="#CFDD58" transform="translate(293,143)"/>
<path d="M0,0 L9,0 L5,3 L3,3 L5,4 L5,6 L-3,6 L-3,4 L-1,4 Z " fill="#AFB660" transform="translate(280,108)"/>
<path d="M0,0 L5,0 L2,1 L2,3 L-6,6 L-7,9 L-10,9 L-10,5 Z " fill="#95AB76" transform="translate(71,66)"/>
<path d="M0,0 L2,3 L2,5 L6,6 L6,9 L2,8 L-3,5 L-3,3 L-6,2 Z " fill="#CEDAA5" transform="translate(122,49)"/>
<path d="M0,0 L9,0 L13,1 L13,3 L9,4 L0,4 Z " fill="#85BC31" transform="translate(97,49)"/>
<path d="M0,0 L5,3 L5,6 L6,10 L2,11 L0,11 L1,7 L0,2 Z " fill="#BECB61" transform="translate(285,210)"/>
<path d="M0,0 L5,0 L7,4 L0,4 L0,6 L-7,6 L-4,4 L0,2 Z " fill="#AACB70" transform="translate(124,98)"/>
<path d="M0,0 L2,0 L2,3 L4,3 L4,5 L-1,8 L-6,6 L-3,5 L-3,3 L-1,3 Z " fill="#AFD57A" transform="translate(199,77)"/>
<path d="M0,0 L7,0 L7,2 L5,2 L4,4 L4,1 L-2,4 L-6,6 L-12,6 L-12,4 L-3,2 Z " fill="#BDD991" transform="translate(197,76)"/>
<path d="M0,0 L8,0 L10,1 L10,5 L3,5 L3,1 Z " fill="#7EA42C" transform="translate(126,188)"/>
<path d="M0,0 L2,2 L2,9 L-2,7 L-3,6 L-8,6 L-5,5 L-5,3 L0,3 Z " fill="#C2C885" transform="translate(96,171)"/>
<path d="M0,0 L5,0 L5,3 L3,3 L1,10 L-1,10 L-2,2 L0,2 Z " fill="#9CBC4A" transform="translate(99,165)"/>
<path d="M0,0 L11,0 L16,3 L17,10 L15,9 L15,5 L9,3 L8,2 L0,1 Z " fill="#CBE39C" transform="translate(112,107)"/>
<path d="M0,0 L5,0 L5,10 L1,5 L-2,3 Z " fill="#DCE47C" transform="translate(224,98)"/>
<path d="M0,0 L5,1 L7,7 L5,7 L3,2 L1,2 L1,5 L4,7 L-3,7 L-3,3 L0,3 Z " fill="#AFD34B" transform="translate(220,85)"/>
<path d="M0,0 L5,1 L7,5 L3,8 L1,7 L3,5 L-1,4 L-4,4 Z " fill="#D8EA46" transform="translate(90,69)"/>
<path d="M0,0 L3,0 L3,2 L5,2 L4,6 L-1,6 L-2,10 L-2,5 L-6,4 L0,3 Z " fill="#BBC972" transform="translate(78,61)"/>
<path d="M0,0 L2,0 L-1,12 L-3,13 L-3,11 L-5,11 L-4,4 L-1,4 Z " fill="#BBC874" transform="translate(367,189)"/>
<path d="M0,0 L3,1 L4,4 L2,10 L0,9 L-4,5 L0,1 Z " fill="#C4BD9B" transform="translate(317,173)"/>
<path d="M0,0 L2,1 L-3,6 L-6,9 L-10,9 L-11,13 L-13,12 L-11,8 L-4,4 L-2,4 Z " fill="#B5BC4F" transform="translate(278,158)"/>
<path d="M0,0 L5,0 L5,2 L12,3 L13,10 L10,6 L10,4 L0,3 Z " fill="#BCEA50" transform="translate(60,132)"/>
<path d="M0,0 L1,3 L1,4 L3,4 L3,9 L-2,8 L-4,3 Z " fill="#B9DC68" transform="translate(286,266)"/>
<path d="M0,0 L4,1 L1,7 L-2,7 L-3,10 L-4,6 Z " fill="#C5DB97" transform="translate(351,231)"/>
<path d="M0,0 L7,0 L7,3 L2,7 L-1,7 L-1,9 L-3,9 L-2,6 L1,5 L2,2 L0,2 Z " fill="#ABB964" transform="translate(228,186)"/>
<path d="M0,0 L19,1 L22,5 L18,5 L17,3 L3,2 Z " fill="#A9C45E" transform="translate(206,181)"/>
<path d="M0,0 L8,2 L12,4 L10,5 L0,5 Z " fill="#C9E068" transform="translate(204,176)"/>
<path d="M0,0 L5,1 L10,2 L11,6 L5,6 L5,3 L-1,3 Z " fill="#BFDAA6" transform="translate(72,176)"/>
<path d="M0,0 L8,1 L7,3 L6,4 L5,7 L0,6 L-1,2 Z " fill="#99BD70" transform="translate(184,173)"/>
<path d="M0,0 L2,3 L3,6 L1,8 L-4,7 L-3,3 Z " fill="#C5D640" transform="translate(312,162)"/>
<path d="M0,0 L6,0 L7,3 L9,3 L9,8 L8,6 L2,4 L0,3 Z " fill="#CBD4AB" transform="translate(131,125)"/>
<path d="M0,0 L4,1 L2,7 L-1,8 L-3,7 L-3,5 L-1,5 L-2,2 Z " fill="#BDE376" transform="translate(129,103)"/>
<path d="M0,0 L8,0 L13,1 L13,2 L7,2 L6,5 L-1,5 L2,2 Z " fill="#CDE698" transform="translate(104,103)"/>
<path d="M0,0 L9,1 L6,4 L3,5 L-3,3 L-3,1 Z " fill="#A3E644" transform="translate(203,99)"/>
<path d="M0,0 L2,0 L2,2 L4,2 L4,4 L6,4 L7,8 L-3,7 L-3,5 L2,4 Z " fill="#ADDD2F" transform="translate(57,155)"/>
<path d="M0,0 L3,3 L3,5 L12,7 L13,11 L11,11 L10,9 L3,8 L0,4 Z " fill="#BAC16F" transform="translate(324,128)"/>
<path d="M0,0 L8,0 L8,2 L10,2 L10,4 L1,4 L-3,2 Z " fill="#CADA50" transform="translate(147,121)"/>
<path d="M0,0 L5,0 L10,7 L4,5 L-2,3 L0,2 Z " fill="#B6C696" transform="translate(270,100)"/>
<path d="M0,0 L7,0 L7,2 L2,2 L3,7 L6,8 L1,7 L0,5 L-3,4 L-3,2 L-1,2 Z " fill="#93A537" transform="translate(122,81)"/>
<path d="M0,0 L1,2 L3,2 L6,6 L1,6 L0,8 L0,6 L-3,5 L-2,1 Z " fill="#A3B95A" transform="translate(84,25)"/>
<path d="M0,0 L4,1 L5,2 L5,0 L7,0 L7,4 L0,6 L-6,6 L-5,4 L0,3 Z " fill="#B4C660" transform="translate(304,227)"/>
<path d="M0,0 L4,1 L2,5 L1,8 L-4,8 L-3,1 L-2,3 Z " fill="#C9D56B" transform="translate(313,205)"/>
<path d="M0,0 L2,3 L5,3 L3,4 L4,8 L-1,9 L-3,5 L-2,3 Z " fill="#BCCB60" transform="translate(288,202)"/>
<path d="M0,0 L4,0 L3,4 L5,5 L5,7 L-4,6 L-1,3 Z " fill="#97B276" transform="translate(110,140)"/>
<path d="M0,0 L12,0 L12,2 L6,2 L6,4 L0,3 Z " fill="#97B048" transform="translate(80,140)"/>
<path d="M0,0 L7,0 L7,2 L9,3 L7,3 L7,5 L1,4 Z " fill="#BCC498" transform="translate(129,133)"/>
<path d="M0,0 L6,0 L10,3 L7,7 L5,7 L2,2 Z " fill="#C4DE6F" transform="translate(205,120)"/>
<path d="M0,0 L6,1 L6,4 L6,6 L-3,3 L-4,1 Z " fill="#C1E87D" transform="translate(156,99)"/>
<path d="M0,0 L4,1 L5,3 L1,6 L-4,5 L-3,1 Z " fill="#9EAC5C" transform="translate(205,91)"/>
<path d="M0,0 L5,0 L5,2 L1,2 L3,7 L-5,8 L-3,4 L-1,3 Z " fill="#C1E65E" transform="translate(89,56)"/>
<path d="M0,0 L2,0 L3,9 L1,8 L-2,15 L-3,13 L-2,6 L0,4 Z " fill="#E9F4D0" transform="translate(171,40)"/>
<path d="M0,0 L7,0 L6,5 L0,5 Z " fill="#DEF5B6" transform="translate(70,179)"/>
<path d="M0,0 L6,2 L5,7 L-2,6 L0,5 Z " fill="#92B348" transform="translate(116,169)"/>
<path d="M0,0 L7,0 L7,3 L9,3 L10,6 L7,6 L0,2 Z " fill="#A19F48" transform="translate(297,167)"/>
<path d="M0,0 L4,0 L4,4 L0,5 L0,7 L-4,7 L-4,5 L-2,5 L-2,1 Z " fill="#759926" transform="translate(112,152)"/>
<path d="M0,0 L8,2 L8,3 L3,3 L1,7 L-5,6 L-1,3 Z " fill="#ADC440" transform="translate(77,146)"/>
<path d="M0,0 L4,0 L4,4 L9,3 L9,7 L3,6 L3,4 L0,3 Z " fill="#A7D14F" transform="translate(62,128)"/>
<path d="M0,0 L3,1 L1,10 L-2,10 L-2,3 Z " fill="#B4C993" transform="translate(54,102)"/>
<path d="M0,0 L1,4 L-2,10 L-4,11 L-3,3 Z " fill="#91A462" transform="translate(360,210)"/>
<path d="M0,0 L4,1 L2,7 L-1,7 L-1,5 L-4,4 Z " fill="#CEDF56" transform="translate(364,186)"/>
<path d="M0,0 L7,0 L9,2 L6,4 L0,4 L-1,1 Z " fill="#9AAF84" transform="translate(157,187)"/>
<path d="M0,0 L6,2 L5,5 L2,5 L2,7 L-2,6 Z " fill="#9BAF34" transform="translate(89,143)"/>
<path d="M0,0 L9,1 L6,2 L7,5 L6,6 L1,6 L4,5 L4,1 L3,3 L-1,4 Z " fill="#C1D559" transform="translate(191,115)"/>
<path d="M0,0 L6,1 L3,2 L3,5 L5,6 L0,5 L-3,2 Z " fill="#9EBF5A" transform="translate(88,108)"/>
<path d="M0,0 L5,3 L8,12 L6,12 L6,10 L4,10 L4,8 L1,7 L4,5 L2,5 Z " fill="#B4DD7E" transform="translate(175,90)"/>
<path d="M0,0 L4,0 L6,5 L2,5 L1,3 L-6,3 L-6,1 Z " fill="#799F3A" transform="translate(66,83)"/>
<path d="M0,0 L3,1 L3,4 L5,6 L3,6 L4,10 L7,10 L8,15 L6,14 L6,12 L3,11 L0,2 Z " fill="#ADCF79" transform="translate(223,76)"/>
<path d="M0,0 L2,0 L1,3 L-1,3 L-2,8 L-5,12 L-7,11 L-4,6 L-2,1 Z " fill="#A2B571" transform="translate(139,22)"/>
<path d="M0,0 L8,0 L7,2 L-1,2 L-2,7 L-5,6 L-5,4 Z " fill="#E2FB9D" transform="translate(74,170)"/>
<path d="M0,0 L7,1 L8,5 L6,6 L6,4 L2,5 L1,7 L-1,6 L1,2 Z " fill="#BCDD51" transform="translate(82,154)"/>
<path d="M0,0 L4,1 L5,6 L1,8 L1,6 L-1,5 Z " fill="#BDC43E" transform="translate(244,152)"/>
<path d="M0,0 L2,0 L2,2 L6,1 L6,3 L0,6 L-4,5 L-2,4 Z " fill="#C2D456" transform="translate(142,114)"/>
<path d="M0,0 L2,0 L2,4 L4,4 L4,6 L2,6 L1,8 L-4,6 L-4,4 L0,4 Z " fill="#ADCD6C" transform="translate(192,104)"/>
<path d="M0,0 L3,4 L3,10 L0,14 L-2,14 L-2,11 L0,11 Z " fill="#91A47D" transform="translate(190,224)"/>
<path d="M0,0 L3,1 L5,8 L9,10 L6,13 L3,10 Z " fill="#809761" transform="translate(97,195)"/>
<path d="M0,0 L1,2 L4,2 L4,6 L2,6 L2,8 L-1,8 L-1,2 Z " fill="#7F9C2B" transform="translate(342,186)"/>
<path d="M0,0 L6,1 L6,3 L2,3 L2,5 L-4,5 L-4,3 L0,3 Z " fill="#B6D35D" transform="translate(76,165)"/>
<path d="M0,0 L14,1 L14,2 L4,2 L3,8 L2,5 L3,3 L0,3 Z " fill="#91B45D" transform="translate(77,120)"/>
<path d="M0,0 L1,0 L3,15 L-1,16 L0,8 Z " fill="#B0C599" transform="translate(57,86)"/>
<path d="M0,0 L1,4 L7,4 L7,5 L0,5 L-1,8 L-1,5 L-3,4 L-4,5 L-6,4 L-6,2 L0,2 Z " fill="#A6BC4F" transform="translate(141,87)"/>
<path d="M0,0 L2,0 L4,4 L9,5 L9,7 L3,8 L1,7 Z " fill="#98A533" transform="translate(112,73)"/>
<path d="M0,0 L8,1 L8,2 L2,4 L-2,6 L-4,3 Z " fill="#EFF7ED" transform="translate(318,263)"/>
<path d="M0,0 L1,3 L-4,8 L-5,3 L-5,1 Z " fill="#A09950" transform="translate(292,174)"/>
<path d="M0,0 L4,0 L5,4 L-2,4 L-4,8 L-6,7 L-6,5 L-3,3 L2,3 L2,1 Z " fill="#DBDD67" transform="translate(238,162)"/>
<path d="M0,0 L2,0 L1,3 L-4,8 L-5,10 L-7,10 L-5,4 L-5,2 Z " fill="#C2E65A" transform="translate(90,160)"/>
<path d="M0,0 L5,0 L5,3 L2,3 L2,6 L-2,8 L-1,4 Z " fill="#D3F269" transform="translate(80,149)"/>
<path d="M0,0 L4,0 L4,2 L0,2 L1,5 L-2,8 L-5,7 L-5,5 Z " fill="#92A964" transform="translate(215,122)"/>
<path d="M0,0 L4,1 L1,1 L2,4 L9,4 L5,6 L0,7 L-2,6 Z " fill="#CBD1A4" transform="translate(105,115)"/>
<path d="M0,0 L6,1 L5,3 L1,3 L1,5 L-3,4 L-2,1 Z " fill="#CEDA76" transform="translate(204,105)"/>
<path d="M0,0 L5,0 L5,3 L7,5 L2,5 L0,6 L-1,3 Z " fill="#BFD25E" transform="translate(79,72)"/>
<path d="M0,0 L3,2 L-6,7 L-8,6 L-6,3 Z " fill="#EFF7EE" transform="translate(163,71)"/>
<path d="M0,0 L4,0 L4,6 L-1,8 L-6,7 L-6,6 L1,5 L2,2 L0,2 Z " fill="#DEEDB5" transform="translate(164,58)"/>
<path d="M0,0 L1,0 L2,8 L-2,7 L-3,6 L-3,1 Z " fill="#97CF3F" transform="translate(95,26)"/>
<path d="M0,0 L2,0 L5,5 L6,14 L5,11 L3,11 Z " fill="#BCC5B9" transform="translate(173,17)"/>
<path d="M0,0 L9,1 L15,0 L12,3 L4,3 L0,2 Z " fill="#899F7B" transform="translate(192,265)"/>
<path d="M0,0 L1,2 L5,2 L5,0 L9,0 L9,2 L14,2 L14,3 L-1,3 Z " fill="#8BA437" transform="translate(312,227)"/>
<path d="M0,0 L3,1 L3,6 L-2,7 L-2,4 L-2,2 L0,2 Z " fill="#C8D56B" transform="translate(300,218)"/>
<path d="M0,0 L5,1 L7,2 L7,4 L3,3 L-2,5 L-4,4 L-3,2 Z " fill="#B9CA5D" transform="translate(304,210)"/>
<path d="M0,0 L6,0 L3,3 L4,5 L0,6 L-3,5 L-1,1 Z " fill="#AFA95A" transform="translate(289,190)"/>
<path d="M0,0 L2,2 L0,4 L-3,3 L-5,8 L-7,7 L-5,2 Z " fill="#B3BF69" transform="translate(318,186)"/>
<path d="M0,0 L2,0 L5,7 L4,11 L-2,10 L-2,9 L3,9 Z " fill="#749F2E" transform="translate(99,179)"/>
<path d="M0,0 L2,0 L4,5 L1,5 L0,9 L-2,6 L-2,1 Z " fill="#88B745" transform="translate(103,176)"/>
<path d="M0,0 L5,1 L4,6 L2,6 L2,8 L0,8 Z " fill="#AFD938" transform="translate(42,154)"/>
<path d="M0,0 L9,0 L11,3 L8,6 L5,2 L0,2 Z " fill="#9EB778" transform="translate(171,152)"/>
<path d="M0,0 L3,1 L1,8 L-1,8 L-1,10 L-4,10 L-4,7 L-1,5 Z " fill="#C2D445" transform="translate(336,142)"/>
<path d="M0,0 L1,0 L2,7 L0,16 L-2,15 Z " fill="#C6DE8F" transform="translate(48,125)"/>
<path d="M0,0 L1,3 L6,5 L8,7 L7,11 L6,7 L1,5 L-2,1 Z " fill="#F6F8E1" transform="translate(318,118)"/>
<path d="M0,0 L9,2 L9,5 L3,5 L3,3 L0,3 Z " fill="#A7AE79" transform="translate(101,109)"/>
<path d="M0,0 L2,1 L-1,4 L-3,4 L-4,6 L-4,4 L-9,5 L-12,4 L-12,2 L-4,2 Z " fill="#A2B256" transform="translate(152,79)"/>
<path d="M0,0 L2,3 L0,3 L1,6 L5,7 L4,10 L1,10 L-1,5 L-3,4 Z " fill="#ACB071" transform="translate(111,62)"/>
<path d="M0,0 L4,1 L4,11 L2,11 L0,5 L3,5 L3,2 L0,2 Z " fill="#A3B752" transform="translate(87,36)"/>
<path d="M0,0 L5,3 L10,3 L9,5 L7,5 L6,7 L4,8 L0,4 Z " fill="#92A65F" transform="translate(80,28)"/>
<path d="M0,0 L4,2 L4,4 L0,6 L-2,4 L-5,4 L-4,1 Z " fill="#829534" transform="translate(325,188)"/>
<path d="M0,0 L5,3 L5,4 L0,5 L1,8 L-1,9 L-1,7 L-4,6 L-1,3 Z " fill="#A8A74C" transform="translate(296,163)"/>
<path d="M0,0 L1,4 L7,5 L3,6 L3,8 L-1,7 Z " fill="#D0F062" transform="translate(97,153)"/>
<path d="M0,0 L14,1 L14,2 L4,4 L0,4 Z " fill="#90B352" transform="translate(106,150)"/>
<path d="M0,0 L11,2 L11,4 L5,5 L5,3 L0,3 Z " fill="#AEC68F" transform="translate(83,134)"/>
<path d="M0,0 L3,1 L4,7 L0,7 L-1,1 Z " fill="#A2C574" transform="translate(100,123)"/>
<path d="M0,0 L8,0 L6,2 L2,2 L1,5 L-2,5 L-2,2 L0,2 Z " fill="#C5DB5B" transform="translate(134,112)"/>
<path d="M0,0 L6,0 L9,3 L5,4 L3,6 L1,2 Z " fill="#DBE1B4" transform="translate(104,114)"/>
<path d="M0,0 L5,0 L6,2 L9,4 L0,4 Z " fill="#B4CA86" transform="translate(255,98)"/>
<path d="M0,0 L3,0 L3,2 L7,2 L7,4 L4,5 L-4,5 L0,3 Z " fill="#99BC58" transform="translate(59,98)"/>
<path d="M0,0 L6,1 L6,4 L-3,3 L-6,4 L-5,1 Z " fill="#BACA7F" transform="translate(238,98)"/>
<path d="M0,0 L2,0 L2,7 L1,9 L-2,8 L-2,4 L0,4 Z " fill="#D8E97B" transform="translate(227,88)"/>
<path d="M0,0 L3,1 L2,4 L-2,5 L-7,4 L-6,2 Z " fill="#97B03F" transform="translate(206,87)"/>
<path d="M0,0 L5,0 L5,4 L4,5 L-2,5 L-2,3 L2,2 Z " fill="#97B23C" transform="translate(110,80)"/>
<path d="M0,0 L2,1 L1,6 L0,10 L-2,10 L-2,5 L-5,6 L-5,4 Z " fill="#A6AB4E" transform="translate(102,66)"/>
<path d="M0,0 L5,4 L1,5 L0,9 L-2,9 L-2,3 Z " fill="#9EBA4B" transform="translate(131,34)"/>
<path d="M0,0 L2,0 L1,5 L0,9 L-3,9 L-3,4 L-1,3 Z " fill="#A7D02E" transform="translate(142,32)"/>
<path d="M0,0 L6,1 L6,3 L1,3 L1,10 L-1,7 Z " fill="#A7B290" transform="translate(79,21)"/>
<path d="M0,0 L3,0 L3,3 L-3,7 L-7,5 L-3,3 L0,3 Z " fill="#A3A64D" transform="translate(279,200)"/>
<path d="M0,0 L1,2 L0,8 L3,9 L2,10 L-6,9 L-2,7 Z " fill="#91A549" transform="translate(341,186)"/>
<path d="M0,0 L5,0 L0,4 L-6,3 L-4,1 Z " fill="#7D965D" transform="translate(136,194)"/>
<path d="M0,0 L1,0 L1,6 L6,7 L4,10 L0,8 Z M5,4 Z " fill="#8CA757" transform="translate(95,186)"/>
<path d="M0,0 L8,0 L9,3 L5,2 L-1,4 Z " fill="#9BA059" transform="translate(320,187)"/>
<path d="M0,0 L3,2 L3,4 L6,5 L6,7 L1,6 L-1,3 Z " fill="#C9EE62" transform="translate(110,167)"/>
<path d="M0,0 L2,0 L1,4 L-4,9 L-6,9 L-4,4 L-1,3 Z " fill="#A9AC48" transform="translate(268,167)"/>
<path d="M0,0 L3,1 L2,5 L-3,5 L-3,2 Z M-4,5 L-3,7 L-7,6 Z " fill="#99A37C" transform="translate(167,147)"/>
<path d="M0,0 L2,1 L0,5 L-7,5 L-8,3 L-3,3 L-3,1 Z " fill="#A0B664" transform="translate(201,141)"/>
<path d="M0,0 L2,2 L1,7 L-2,8 L-1,4 L-4,4 L-4,2 L0,2 Z " fill="#94A06C" transform="translate(108,131)"/>
<path d="M0,0 L5,2 L5,4 L-1,5 L-4,3 Z " fill="#BECB41" transform="translate(283,114)"/>
<path d="M0,0 L4,2 L5,5 L2,5 L-3,5 L-2,2 Z " fill="#AAB260" transform="translate(289,109)"/>
<path d="M0,0 L3,2 L0,2 L0,4 L2,4 L3,8 L-1,7 L-2,2 L-4,1 Z " fill="#9AC647" transform="translate(123,88)"/>
<path d="M0,0 L7,1 L7,2 L-1,4 L-3,7 L-5,4 L-3,4 L-3,2 Z " fill="#B5DF68" transform="translate(201,82)"/>
<path d="M0,0 L8,1 L4,6 L0,3 Z " fill="#DAEA95" transform="translate(80,76)"/>
<path d="M0,0 L2,1 L6,0 L8,2 L4,2 L4,10 L2,6 L2,3 L0,3 Z " fill="#B1CA50" transform="translate(94,56)"/>
<path d="M0,0 L6,1 L6,3 L9,4 L2,5 L2,1 Z " fill="#C9E56F" transform="translate(145,52)"/>
<path d="M0,0 L3,1 L2,3 L-4,4 L-4,2 L-7,2 L-8,6 L-8,1 Z " fill="#E4EAD5" transform="translate(72,185)"/>
<path d="M0,0 L2,0 L4,7 L5,11 L0,7 Z " fill="#B9C46A" transform="translate(362,177)"/>
<path d="M0,0 L18,0 L15,3 L13,3 L13,1 L0,1 Z " fill="#A09553" transform="translate(237,180)"/>
<path d="M0,0 L6,0 L9,4 L1,3 Z " fill="#7DA638" transform="translate(141,173)"/>
<path d="M0,0 L4,0 L4,2 L7,2 L8,6 L4,6 L0,2 Z " fill="#C6DC6D" transform="translate(194,170)"/>
<path d="M0,0 L6,0 L6,2 L11,3 L11,4 L2,4 L2,2 L-1,1 Z " fill="#B8C098" transform="translate(110,131)"/>
<path d="M0,0 L9,2 L8,5 L3,4 L3,2 L0,3 Z " fill="#BEEF39" transform="translate(51,129)"/>
<path d="M0,0 L5,0 L3,5 L-1,7 Z " fill="#92B751" transform="translate(53,119)"/>
<path d="M0,0 L7,1 L6,3 L-3,4 L-2,1 Z " fill="#D0E083" transform="translate(268,113)"/>
<path d="M0,0 L0,3 L0,6 L-6,5 L-6,2 Z " fill="#CED97D" transform="translate(217,105)"/>
<path d="M0,0 L2,1 L2,3 L5,2 L7,6 L0,6 L1,4 Z M5,0 Z " fill="#BEE682" transform="translate(183,102)"/>
<path d="M0,0 L6,1 L4,5 L-2,5 L0,1 Z " fill="#B3E258" transform="translate(213,100)"/>
<path d="M0,0 L2,2 L2,8 L-7,8 L-7,7 L0,6 Z " fill="#DAEF8C" transform="translate(98,89)"/>
<path d="M0,0 L1,2 L6,2 L5,6 L0,6 Z " fill="#B5C774" transform="translate(123,49)"/>
<path d="M0,0 L2,0 L2,2 L5,3 L3,3 L2,6 L-2,6 Z " fill="#92B828" transform="translate(138,26)"/>
<path d="M0,0 L10,2 L11,4 L2,2 L1,5 L-1,4 Z " fill="#9EB97C" transform="translate(190,263)"/>
<path d="M0,0 L3,1 L1,4 L1,7 L-3,8 L-2,1 Z " fill="#B1C38D" transform="translate(327,256)"/>
<path d="M0,0 L9,0 L9,1 L4,1 L3,4 L0,3 L-1,6 Z " fill="#A4BA8F" transform="translate(183,201)"/>
<path d="M0,0 L2,1 L2,6 L5,7 L4,10 L3,9 L1,11 L-1,1 Z " fill="#C2D748" transform="translate(325,154)"/>
<path d="M0,0 L9,0 L8,3 L6,3 L5,6 L4,6 L4,1 Z " fill="#C8E460" transform="translate(87,152)"/>
<path d="M0,0 L5,1 L11,3 L11,4 L1,4 Z " fill="#C9DC65" transform="translate(193,150)"/>
<path d="M0,0 L3,0 L2,8 L0,8 L-1,1 Z " fill="#A5BB72" transform="translate(101,114)"/>
<path d="M0,0 L6,2 L3,7 L1,7 L1,4 L-3,3 L0,3 Z " fill="#A2B650" transform="translate(198,89)"/>
<path d="M0,0 L4,2 L5,7 L-2,7 L-2,6 L3,6 L2,2 L-1,3 Z " fill="#80AA47" transform="translate(74,89)"/>
<path d="M0,0 L1,4 L0,7 L-3,6 L-4,1 Z " fill="#BBC455" transform="translate(100,70)"/>
<path d="M0,0 L7,0 L7,2 L4,2 L4,4 L0,4 Z " fill="#99A340" transform="translate(104,61)"/>
<path d="M0,0 L3,2 L3,7 L7,8 L2,8 L0,6 Z " fill="#D1E595" transform="translate(132,55)"/>
<path d="M0,0 L3,0 L5,4 L-2,5 L-2,2 Z " fill="#929177" transform="translate(116,52)"/>
<path d="M0,0 L4,2 L4,4 L1,4 L-2,8 L-2,2 Z " fill="#D4F14E" transform="translate(91,47)"/>
<path d="M0,0 L1,2 L4,1 L3,4 L-1,3 L-5,5 L-5,1 Z " fill="#BDD088" transform="translate(85,23)"/>
<path d="M0,0 L3,0 L3,2 L8,2 L8,4 L10,5 L5,5 L5,3 L1,3 L0,5 Z " fill="#BBCE8D" transform="translate(86,17)"/>
<path d="M0,0 L4,3 L4,1 L7,1 L7,5 L3,6 L0,3 Z " fill="#B3D76B" transform="translate(311,256)"/>
<path d="M0,0 L3,0 L6,6 L6,8 L2,7 Z " fill="#A6B861" transform="translate(226,229)"/>
<path d="M0,0 L1,3 L-1,8 L-8,8 L-8,7 L-3,6 L-2,1 Z " fill="#8DA052" transform="translate(356,223)"/>
<path d="M0,0 L2,2 L3,3 L3,5 L0,6 L-1,9 L-3,8 L-1,1 Z " fill="#CBD677" transform="translate(298,188)"/>
<path d="M0,0 L2,4 L1,9 L-3,7 L-2,4 L0,4 L-1,1 Z " fill="#C9F258" transform="translate(71,151)"/>
<path d="M0,0 L2,0 L3,4 L6,5 L5,8 L1,6 Z " fill="#A3A745" transform="translate(290,145)"/>
<path d="M0,0 L2,3 L4,2 L3,6 L2,9 L-1,8 Z " fill="#C9D35A" transform="translate(241,139)"/>
<path d="M0,0 L4,0 L3,2 L-1,6 L-3,6 L-3,2 L0,2 Z " fill="#94B65F" transform="translate(100,130)"/>
<path d="M0,0 L3,0 L3,6 L1,4 L-4,3 L-4,1 Z " fill="#96BC50" transform="translate(66,114)"/>
<path d="M0,0 L6,0 L9,2 L8,7 L6,7 L5,1 L0,1 Z " fill="#93B242" transform="translate(212,98)"/>
<path d="M0,0 L7,1 L8,4 L0,3 Z " fill="#BED2A0" transform="translate(117,97)"/>
<path d="M0,0 L1,4 L3,5 L1,9 L-2,9 L-2,3 L0,3 Z " fill="#DEE5E2" transform="translate(171,53)"/>
<path d="M0,0 L3,1 L4,6 L-1,4 L-2,1 Z " fill="#D6E8AD" transform="translate(153,30)"/>
<path d="M0,0 L3,0 L3,3 L5,4 L3,7 L-1,4 Z " fill="#E5F6C9" transform="translate(164,29)"/>
<path d="M0,0 L5,1 L3,5 L-2,3 L-2,1 Z " fill="#D6EFA6" transform="translate(146,26)"/>
<path d="M0,0 L3,4 L3,7 L-3,6 L-3,3 L-1,3 Z " fill="#9DA186" transform="translate(90,9)"/>
<path d="M0,0 L2,1 L0,4 L-8,5 L-6,3 Z " fill="#A0B47F" transform="translate(302,273)"/>
<path d="M0,0 L6,0 L6,2 L2,2 L2,5 L0,5 L-1,1 Z " fill="#A9CB60" transform="translate(274,264)"/>
<path d="M0,0 L5,5 L4,7 L-4,3 Z " fill="#C4DA91" transform="translate(241,248)"/>
<path d="M0,0 L2,1 L-1,4 L-6,5 L-6,3 L-4,3 L-4,1 Z " fill="#B7C565" transform="translate(260,224)"/>
<path d="M0,0 L8,4 L4,6 L-1,5 Z " fill="#9B9E4E" transform="translate(310,182)"/>
<path d="M0,0 L6,0 L7,2 L2,2 L2,4 L-2,3 L-3,5 L-3,2 L0,2 Z " fill="#CAE787" transform="translate(85,168)"/>
<path d="M0,0 L6,1 L6,4 L4,4 L3,6 L3,3 L0,3 Z " fill="#98A53B" transform="translate(97,143)"/>
<path d="M0,0 L4,1 L4,4 L2,4 L1,6 L-2,4 L-2,2 L0,2 Z " fill="#BDCD4A" transform="translate(288,141)"/>
<path d="M0,0 L1,2 L5,0 L3,6 L-2,4 Z " fill="#D2E54F" transform="translate(290,135)"/>
<path d="M0,0 L2,0 L2,2 L9,2 L4,6 L0,3 Z " fill="#CCD9AE" transform="translate(110,133)"/>
<path d="M0,0 L8,1 L4,2 L4,4 L2,4 L1,6 L0,5 Z " fill="#DCDCB0" transform="translate(108,126)"/>
<path d="M0,0 L4,2 L4,5 L2,7 L-1,2 Z " fill="#C8D75D" transform="translate(312,117)"/>
<path d="M0,0 L3,4 L0,4 L-1,6 L-1,4 L-4,4 L-3,1 Z " fill="#AEBF53" transform="translate(224,94)"/>
<path d="M0,0 L3,0 L4,3 L1,5 L-1,4 L-1,7 L-3,7 L-2,3 L0,2 Z " fill="#A0D147" transform="translate(101,41)"/>
<path d="M0,0 L3,1 L2,3 L-1,5 L-4,5 L-4,10 L-5,10 L-5,4 L-2,3 Z " fill="#B1D176" transform="translate(96,22)"/>
<path d="M0,0 L4,4 L7,7 L7,9 L2,7 Z " fill="#B3BAB2" transform="translate(166,7)"/>
<path d="M0,0 L8,0 L7,3 L0,3 Z " fill="#90B36B" transform="translate(192,252)"/>
<path d="M0,0 L5,0 L5,5 L4,3 L0,4 Z " fill="#90AF72" transform="translate(187,202)"/>
<path d="M0,0 L6,0 L10,3 L3,3 Z " fill="#91A960" transform="translate(116,192)"/>
<path d="M0,0 L1,2 L4,3 L4,4 L-5,4 L-5,2 L0,2 Z " fill="#82A45C" transform="translate(161,183)"/>
<path d="M0,0 L2,0 L2,2 L4,2 L6,7 L4,8 L1,5 Z " fill="#A79F67" transform="translate(289,169)"/>
<path d="M0,0 L4,0 L2,5 L-3,5 L-3,3 L1,3 Z " fill="#D4F572" transform="translate(81,165)"/>
<path d="M0,0 L5,3 L6,1 L6,3 L11,3 L11,4 L3,5 L0,2 Z " fill="#B5E732" transform="translate(48,159)"/>
<path d="M0,0 L1,3 L-5,8 L-7,7 L-4,4 L-2,4 Z " fill="#B3C242" transform="translate(266,153)"/>
<path d="M0,0 L4,1 L4,3 L7,4 L0,4 L-3,2 L0,2 Z " fill="#B0B955" transform="translate(264,140)"/>
<path d="M0,0 L6,1 L6,4 L1,5 Z " fill="#CBE06A" transform="translate(197,137)"/>
<path d="M0,0 L2,4 L3,5 L3,12 L1,10 Z " fill="#C2D55A" transform="translate(193,132)"/>
<path d="M0,0 L1,3 L-1,8 L-2,5 L-5,5 L-4,2 L-1,2 Z " fill="#90B25A" transform="translate(99,121)"/>
<path d="M0,0 L3,3 L2,7 L-2,5 Z " fill="#C8DD36" transform="translate(310,119)"/>
<path d="M0,0 L3,0 L1,4 L0,3 L-2,6 L-2,4 L-4,4 L-3,1 Z " fill="#92B15F" transform="translate(101,112)"/>
<path d="M0,0 L5,0 L4,3 L-3,3 Z " fill="#D5F579" transform="translate(90,105)"/>
<path d="M0,0 L5,0 L6,4 L0,3 Z " fill="#EBF0E8" transform="translate(166,69)"/>
<path d="M0,0 L3,0 L2,4 L0,8 L-1,1 Z " fill="#8DAF52" transform="translate(97,24)"/>
<path d="M0,0 L4,0 L5,3 L1,2 L1,6 L-2,6 Z " fill="#CADBAD" transform="translate(160,22)"/>
<path d="M0,0 L2,4 L-2,5 L-4,4 L-3,1 Z " fill="#C5D3AB" transform="translate(162,16)"/>
<path d="M0,0 L6,0 L6,2 L4,2 L3,5 L2,2 L-1,1 Z " fill="#B5D769" transform="translate(335,242)"/>
<path d="M0,0 L7,0 L3,4 L0,3 L-2,4 Z " fill="#8DA72E" transform="translate(307,214)"/>
<path d="M0,0 L8,0 L6,3 L0,3 Z " fill="#8BA938" transform="translate(336,209)"/>
<path d="M0,0 L2,3 L-3,7 L-5,7 L-4,4 Z " fill="#EAF3E4" transform="translate(109,201)"/>
<path d="M0,0 L7,1 L7,2 L1,2 L0,4 L0,2 L-3,4 L-6,3 Z " fill="#EEF7E4" transform="translate(142,194)"/>
<path d="M0,0 L4,0 L4,5 L0,4 Z " fill="#8FA52F" transform="translate(342,182)"/>
<path d="M0,0 L2,0 L1,12 L0,12 L0,4 L-2,3 Z " fill="#D3DAC3" transform="translate(94,181)"/>
<path d="M0,0 L2,0 L3,6 L2,8 L0,4 L-2,3 Z " fill="#CADB41" transform="translate(357,181)"/>
<path d="M0,0 L3,2 L3,4 L5,6 L1,7 L-1,1 Z " fill="#DCEDBD" transform="translate(87,176)"/>
<path d="M0,0 L2,0 L2,2 L4,2 L3,5 L-3,5 Z " fill="#EAFBB8" transform="translate(94,168)"/>
<path d="M0,0 L3,4 L4,7 L1,7 L1,5 L-1,5 L-2,2 L0,2 Z " fill="#8EB644" transform="translate(140,166)"/>
<path d="M0,0 L1,4 L-2,8 L-3,2 Z " fill="#C2D73C" transform="translate(301,138)"/>
<path d="M0,0 L3,2 L-2,8 L-4,8 L-3,4 L-1,4 Z " fill="#A4B86A" transform="translate(209,128)"/>
<path d="M0,0 L5,1 L4,4 L-3,3 Z " fill="#DCED81" transform="translate(248,123)"/>
<path d="M0,0 L2,1 L5,3 L7,5 L0,5 Z " fill="#C5DB5F" transform="translate(200,117)"/>
<path d="M0,0 L5,1 L5,3 L3,3 L2,6 L1,3 L-1,3 Z " fill="#D6E693" transform="translate(81,94)"/>
<path d="M0,0 L5,1 L6,4 L4,6 L3,2 L-1,3 Z " fill="#B5DD6D" transform="translate(185,93)"/>
<path d="M0,0 L1,2 L3,2 L4,5 L1,7 L-1,2 Z " fill="#A4C74A" transform="translate(107,83)"/>
<path d="M0,0 L6,2 L7,4 L3,3 L0,5 L-1,3 Z " fill="#AABC92" transform="translate(230,76)"/>
<path d="M0,0 L3,0 L3,3 L5,3 L5,8 L3,8 L2,1 Z " fill="#ACCE54" transform="translate(139,43)"/>
<path d="M0,0 L5,4 L6,7 L3,7 L0,4 Z " fill="#B2D058" transform="translate(150,31)"/>
<path d="M0,0 L6,0 L5,5 L4,3 L1,3 Z " fill="#F8F9EC" transform="translate(163,0)"/>
<path d="M0,0 L1,3 L-1,6 L-4,5 L-2,1 Z " fill="#B2D56C" transform="translate(286,266)"/>
<path d="M0,0 L1,4 L2,8 L-2,6 L-1,1 Z " fill="#94A78F" transform="translate(185,248)"/>
<path d="M0,0 L4,1 L2,6 L-1,5 Z " fill="#B7C598" transform="translate(351,231)"/>
<path d="M0,0 L9,0 L5,1 L4,4 Z " fill="#7E9464" transform="translate(179,193)"/>
<path d="M0,0 L6,0 L6,2 L8,3 L-1,2 Z " fill="#7A9A57" transform="translate(177,180)"/>
<path d="M0,0 L4,4 L4,11 L3,11 Z " fill="#C2D799" transform="translate(46,176)"/>
<path d="M0,0 L5,1 L6,3 L-1,3 Z " fill="#C7D3A2" transform="translate(72,176)"/>
<path d="M0,0 L5,0 L5,4 L0,4 Z " fill="#ABDC35" transform="translate(58,168)"/>
<path d="M0,0 L2,1 L1,4 L3,5 L-1,6 L-2,2 Z " fill="#D3E053" transform="translate(307,165)"/>
<path d="M0,0 L2,1 L3,6 L-2,5 Z " fill="#BDC950" transform="translate(93,161)"/>
<path d="M0,0 L5,0 L6,3 L4,4 L0,3 Z " fill="#8CAC61" transform="translate(156,163)"/>
<path d="M0,0 L2,3 L3,10 L0,7 Z " fill="#ECF1C5" transform="translate(355,156)"/>
<path d="M0,0 L2,1 L-4,7 L-6,6 L-5,3 Z " fill="#AEB04A" transform="translate(286,151)"/>
<path d="M0,0 L4,2 L4,6 L0,5 L0,2 Z " fill="#B8CB8E" transform="translate(121,148)"/>
<path d="M0,0 L1,3 L5,4 L6,8 L0,4 Z " fill="#CED298" transform="translate(344,142)"/>
<path d="M0,0 L4,1 L4,4 L-1,3 Z " fill="#BBCC5A" transform="translate(176,141)"/>
<path d="M0,0 L7,1 L4,2 L4,5 L1,4 Z " fill="#98AC63" transform="translate(218,113)"/>
<path d="M0,0 L3,0 L3,2 L9,2 L9,3 L-1,4 Z " fill="#CCD678" transform="translate(206,110)"/>
<path d="M0,0 L2,1 L1,3 L6,3 L6,4 L-3,4 L-2,1 Z " fill="#8EB248" transform="translate(58,104)"/>
<path d="M0,0 L5,0 L5,3 L7,5 L4,5 L3,7 L2,2 Z " fill="#A1B04D" transform="translate(218,98)"/>
<path d="M0,0 L4,2 L0,5 L-3,4 L-2,2 L0,2 Z " fill="#D4E29F" transform="translate(92,91)"/>
<path d="M0,0 L3,1 L6,5 L0,5 Z " fill="#93B069" transform="translate(59,76)"/>
<path d="M0,0 L3,4 L2,7 L-2,6 L-2,4 L0,4 Z " fill="#E5F9C9" transform="translate(164,49)"/>
<path d="M0,0 L5,1 L4,3 L-2,3 L-2,1 Z " fill="#92C34C" transform="translate(100,47)"/>
<path d="M0,0 L6,3 L7,8 L6,5 L1,3 Z " fill="#A6C54F" transform="translate(156,38)"/>
</svg>
